<svg id="svg" version="1.1" xmlns="http://www.w3.org/2000/svg" xmlns:xlink="http://www.w3.org/1999/xlink" width="400" height="368" viewBox="0, 0, 400,368"><g id="svgg"><path id="path0" d="M26.392 54.673 C 16.835 59.355,20.538 73.729,31.076 72.855 C 40.959 72.036,43.165 58.826,34.127 54.578 C 31.782 53.475,28.760 53.513,26.392 54.673 M111.816 54.533 C 101.909 58.294,104.725 72.928,115.355 72.928 C 124.366 72.928,128.260 61.405,121.082 55.979 C 118.157 53.769,115.091 53.290,111.816 54.533 M196.317 54.559 C 188.418 58.048,188.582 68.797,196.586 72.228 C 202.589 74.801,209.576 70.027,209.576 63.352 C 209.576 56.529,202.493 51.832,196.317 54.559 M281.581 54.524 C 271.672 58.338,274.283 72.796,284.899 72.892 C 295.512 72.988,298.071 58.340,288.108 54.522 C 285.707 53.602,283.975 53.602,281.581 54.524 M366.649 54.264 C 356.769 58.071,358.737 72.160,369.245 72.848 C 377.890 73.414,382.485 63.088,376.485 56.582 C 374.314 54.229,369.614 53.121,366.649 54.264 M16.577 75.752 C 11.490 77.532,9.518 80.285,6.992 89.134 C 6.732 90.046,6.150 91.952,5.699 93.370 C 5.248 94.788,4.516 97.192,4.072 98.711 C 3.628 100.230,3.126 101.888,2.956 102.394 C 2.786 102.901,2.196 104.807,1.645 106.630 C 1.094 108.453,0.499 110.102,0.322 110.295 C -1.504 112.280,1.360 116.624,4.279 116.295 C 6.873 116.002,7.791 114.521,9.583 107.735 C 9.744 107.127,10.650 104.061,11.596 100.921 C 12.543 97.781,13.454 94.715,13.620 94.107 C 13.787 93.499,14.235 92.007,14.618 90.792 L 15.312 88.582 17.186 88.472 C 19.387 88.343,19.646 88.680,18.980 90.805 C 18.729 91.608,18.311 93.011,18.051 93.923 C 17.792 94.834,17.433 96.077,17.254 96.685 C 16.508 99.210,13.907 108.568,13.620 109.761 C 13.449 110.470,12.978 112.210,12.572 113.628 C 12.167 115.046,11.490 117.449,11.069 118.969 C 10.647 120.488,10.042 122.643,9.723 123.757 C 9.405 124.871,9.002 126.280,8.829 126.888 C 8.655 127.495,8.322 128.656,8.089 129.466 C 7.856 130.276,7.640 131.354,7.608 131.860 L 7.551 132.781 13.352 132.882 L 19.153 132.984 19.153 150.784 L 19.153 168.584 19.990 169.826 C 21.602 172.218,25.336 172.319,27.056 170.016 C 27.784 169.041,27.815 168.413,27.993 150.894 L 28.177 132.781 30.387 132.781 L 32.597 132.781 32.781 151.076 L 32.965 169.370 33.802 170.261 C 35.790 172.377,39.193 172.153,40.792 169.802 L 41.621 168.584 41.621 150.791 L 41.621 132.998 42.963 132.747 C 43.701 132.608,46.145 132.601,48.395 132.730 C 52.952 132.991,53.627 132.809,53.096 131.458 C 52.904 130.970,52.576 129.908,52.367 129.098 C 51.736 126.656,49.445 118.510,49.000 117.127 C 48.837 116.621,48.531 115.543,48.319 114.733 C 48.108 113.923,47.585 112.017,47.158 110.497 C 46.731 108.978,46.203 107.072,45.984 106.262 C 45.766 105.451,45.453 104.374,45.291 103.867 C 45.128 103.361,44.736 102.035,44.421 100.921 C 44.105 99.807,43.352 97.149,42.746 95.014 C 41.131 89.324,41.125 88.612,42.684 88.463 C 44.544 88.285,45.562 88.657,45.774 89.591 C 45.878 90.049,46.742 92.993,47.693 96.133 C 48.645 99.273,49.560 102.339,49.727 102.947 C 49.894 103.554,50.390 105.212,50.828 106.630 C 51.266 108.048,51.875 110.115,52.181 111.224 C 53.245 115.085,54.392 116.390,56.722 116.390 C 59.572 116.390,61.099 113.939,60.234 110.753 C 59.637 108.552,57.419 101.158,56.622 98.711 C 56.326 97.799,55.717 95.810,55.270 94.291 C 54.426 91.424,52.950 86.583,52.239 84.346 C 51.492 81.995,49.206 79.128,46.777 77.495 C 43.500 75.291,42.368 75.136,29.700 75.156 C 20.252 75.170,17.940 75.275,16.577 75.752 M99.632 75.480 C 94.970 76.682,91.795 79.688,90.428 84.193 C 89.499 87.255,89.619 117.998,90.566 119.551 C 91.813 121.596,94.287 122.043,96.024 120.536 C 97.449 119.300,97.602 117.571,97.604 102.652 L 97.606 88.361 99.724 88.471 L 101.842 88.582 102.026 128.377 C 102.204 166.929,102.232 168.207,102.922 169.261 C 105.229 172.788,109.248 172.974,111.767 169.671 L 112.707 168.439 112.713 145.269 C 112.716 132.526,112.856 121.883,113.024 121.618 C 113.230 121.293,113.977 121.173,115.320 121.249 L 117.311 121.363 117.495 144.751 C 117.701 170.918,117.559 169.606,120.364 171.183 C 122.802 172.553,125.048 172.152,127.072 169.987 L 127.993 169.002 128.090 129.192 C 128.197 84.997,127.969 88.301,130.907 88.473 L 132.781 88.582 132.965 103.749 C 133.143 118.438,133.174 118.948,133.923 119.955 C 135.318 121.828,137.418 122.011,139.251 120.421 L 140.147 119.643 140.147 101.718 L 140.147 83.794 139.282 82.320 C 137.290 78.931,135.369 77.177,132.228 75.881 C 130.790 75.288,101.762 74.930,99.632 75.480 M187.109 75.378 C 182.150 77.004,179.261 80.273,177.554 86.188 C 177.116 87.707,176.619 89.365,176.451 89.871 C 176.282 90.378,175.941 91.538,175.691 92.449 C 175.442 93.361,175.101 94.438,174.933 94.843 C 174.765 95.249,174.196 97.072,173.669 98.895 C 173.141 100.718,172.571 102.624,172.403 103.131 C 172.234 103.637,171.727 105.295,171.275 106.814 C 170.823 108.333,170.306 109.957,170.126 110.422 C 168.916 113.541,170.564 116.206,173.701 116.206 C 176.013 116.206,177.080 115.237,177.855 112.431 C 178.120 111.469,178.723 109.438,179.193 107.919 C 180.222 104.595,181.456 100.476,181.952 98.711 C 184.752 88.743,184.821 88.599,186.839 88.470 C 189.175 88.319,189.277 88.719,188.012 93.110 C 187.446 95.076,186.748 97.514,186.462 98.527 C 186.175 99.540,185.798 100.866,185.625 101.473 C 185.451 102.081,185.148 103.158,184.953 103.867 C 184.396 105.884,183.104 110.479,182.467 112.707 C 181.523 116.012,181.305 116.799,180.479 119.890 C 180.046 121.510,179.550 123.333,179.378 123.941 C 176.530 133.994,176.087 132.920,183.134 133.047 L 188.766 133.149 188.950 151.279 L 189.134 169.409 189.973 170.248 C 191.975 172.252,195.275 172.145,196.785 170.027 L 197.606 168.877 197.606 151.197 C 197.606 131.532,197.459 132.597,200.166 132.597 C 202.763 132.597,202.578 131.150,202.580 151.503 L 202.582 169.245 203.409 170.217 C 205.136 172.246,208.468 172.246,210.213 170.217 L 211.049 169.245 211.049 151.280 L 211.050 133.315 212.063 132.917 C 212.721 132.658,214.721 132.602,217.778 132.756 C 223.488 133.044,223.309 133.261,221.768 127.907 C 221.140 125.726,220.441 123.278,220.215 122.468 C 219.989 121.657,219.677 120.580,219.521 120.074 C 219.366 119.567,219.057 118.490,218.835 117.680 C 218.613 116.869,217.845 114.134,217.127 111.602 C 216.409 109.070,215.641 106.335,215.419 105.525 C 215.197 104.715,214.889 103.637,214.733 103.131 C 214.577 102.624,214.269 101.547,214.047 100.737 C 213.825 99.926,213.060 97.257,212.347 94.805 C 210.557 88.654,210.577 88.398,212.846 88.398 C 214.992 88.398,215.113 88.532,216.170 92.081 C 216.623 93.600,217.128 95.258,217.294 95.764 C 217.459 96.271,217.778 97.348,218.002 98.158 C 218.226 98.969,218.811 100.958,219.302 102.578 C 219.792 104.199,220.516 106.602,220.910 107.919 C 221.304 109.236,221.914 111.264,222.264 112.426 C 223.268 115.755,225.411 117.074,228.135 116.038 C 229.814 115.400,230.698 112.540,229.873 110.422 C 229.691 109.957,229.337 108.831,229.087 107.919 C 228.836 107.007,228.318 105.267,227.935 104.052 C 227.553 102.836,227.092 101.344,226.910 100.737 C 225.804 97.025,224.498 92.726,223.944 90.976 C 223.591 89.862,223.094 88.204,222.838 87.293 C 221.070 80.998,217.835 77.218,212.981 75.777 C 210.899 75.159,188.815 74.818,187.109 75.378 M269.061 75.470 C 265.808 76.289,262.602 78.798,260.932 81.833 L 259.853 83.794 259.734 101.105 C 259.627 116.695,259.677 118.531,260.229 119.570 C 261.465 121.894,263.946 122.191,265.790 120.236 L 267.027 118.925 267.123 103.753 L 267.219 88.582 269.429 88.582 L 271.639 88.582 271.823 128.545 L 272.007 168.508 272.845 169.683 C 275.023 172.736,279.267 172.727,281.554 169.665 C 282.307 168.657,282.324 168.224,282.505 145.001 L 282.689 121.363 284.680 121.249 C 286.023 121.173,286.770 121.293,286.976 121.618 C 287.144 121.883,287.284 132.419,287.287 145.033 C 287.292 162.686,287.399 168.155,287.753 168.790 C 289.915 172.658,294.512 173.104,296.952 169.683 L 297.790 168.508 297.981 128.545 C 298.086 106.565,298.210 88.541,298.257 88.490 C 298.655 88.061,302.349 88.484,302.539 88.980 C 302.662 89.301,302.762 96.030,302.762 103.934 C 302.762 116.144,302.848 118.486,303.333 119.507 C 304.389 121.733,306.841 122.171,308.742 120.472 L 309.945 119.397 309.945 101.964 L 309.945 84.530 308.920 82.443 C 307.624 79.804,305.360 77.545,302.762 76.297 L 300.737 75.324 285.451 75.258 C 277.044 75.221,269.669 75.317,269.061 75.470 M355.801 75.734 C 351.999 77.073,349.060 80.340,347.723 84.715 C 347.506 85.424,346.762 87.827,346.070 90.055 C 345.378 92.284,344.446 95.350,344.000 96.869 C 343.553 98.389,342.897 100.543,342.541 101.657 C 339.079 112.502,338.928 113.676,340.754 115.499 C 342.394 117.135,346.484 116.096,347.096 113.888 C 347.565 112.199,348.915 107.629,349.186 106.814 C 349.355 106.308,349.933 104.401,350.471 102.578 C 353.778 91.361,354.382 89.455,354.818 88.858 C 355.003 88.605,355.880 88.398,356.767 88.398 C 358.814 88.398,358.883 88.802,357.609 93.370 C 357.214 94.788,356.706 96.611,356.480 97.422 C 356.255 98.232,355.924 99.392,355.747 100.000 C 355.444 101.036,353.338 108.513,352.428 111.786 C 352.203 112.597,351.876 113.757,351.702 114.365 C 350.617 118.156,348.198 126.770,347.617 128.913 C 347.425 129.622,347.118 130.691,346.935 131.289 C 346.455 132.854,346.811 132.953,352.947 132.959 L 358.379 132.965 358.379 150.443 C 358.379 163.257,358.498 168.196,358.823 168.951 C 360.136 172.001,363.867 172.681,366.245 170.303 L 367.219 169.329 367.219 151.154 L 367.219 132.979 368.083 132.762 C 368.558 132.643,369.594 132.598,370.385 132.663 L 371.823 132.781 372.007 150.894 C 372.185 168.413,372.216 169.041,372.944 170.016 C 374.612 172.248,378.096 172.274,379.952 170.068 L 380.847 169.004 380.847 151.001 L 380.847 132.998 382.173 132.750 C 382.902 132.613,385.574 132.619,388.112 132.764 L 392.726 133.027 392.526 131.983 C 392.416 131.409,392.146 130.318,391.927 129.558 C 391.708 128.798,391.353 127.555,391.139 126.796 C 390.557 124.727,390.265 123.694,388.620 117.864 C 387.790 114.926,386.926 111.860,386.699 111.050 C 386.472 110.239,386.147 109.162,385.977 108.656 C 385.806 108.149,384.914 105.000,383.995 101.657 C 382.045 94.567,381.651 93.181,380.986 91.078 C 380.281 88.847,380.574 88.398,382.737 88.398 C 384.372 88.398,384.587 88.497,384.943 89.411 C 385.313 90.359,387.535 97.551,388.214 100.000 C 388.383 100.608,388.880 102.265,389.319 103.683 C 389.757 105.101,390.257 106.759,390.428 107.366 C 392.819 115.821,393.068 116.206,396.124 116.206 C 397.705 116.206,398.295 116.055,398.561 115.580 C 398.754 115.235,399.156 114.709,399.456 114.409 C 400.042 113.823,400.210 110.884,399.692 110.295 C 399.403 109.966,398.586 107.431,396.671 100.921 C 396.224 99.401,395.566 97.247,395.208 96.133 C 394.850 95.018,394.111 92.615,393.567 90.792 C 393.022 88.969,392.442 87.063,392.279 86.556 C 392.116 86.050,391.771 84.931,391.512 84.070 C 390.729 81.462,387.596 78.034,384.662 76.577 L 382.136 75.322 369.797 75.236 C 359.325 75.163,357.208 75.239,355.801 75.734 M28.177 196.747 C 17.374 200.387,19.120 215.470,30.344 215.470 C 41.541 215.470,43.754 200.022,33.005 196.897 C 30.752 196.242,29.767 196.211,28.177 196.747 M111.711 197.092 C 106.855 198.959,104.283 205.109,106.451 209.673 C 110.838 218.907,124.152 216.543,124.797 206.415 C 125.236 199.520,118.282 194.566,111.711 197.092 M15.101 218.024 C 11.482 218.754,8.398 221.129,6.446 224.689 L 5.341 226.703 5.341 244.266 L 5.341 261.829 6.423 262.959 C 8.187 264.801,10.912 264.340,12.112 261.995 C 12.394 261.443,12.525 256.590,12.529 246.525 C 12.535 230.065,12.402 230.854,15.136 231.010 L 17.127 231.123 17.311 271.087 L 17.495 311.050 18.353 312.252 C 20.563 315.351,24.673 315.332,27.053 312.212 L 27.993 310.980 27.993 287.731 C 27.993 261.751,27.786 263.720,30.517 263.720 C 32.964 263.720,32.781 261.816,32.781 287.240 C 32.782 312.962,32.685 311.952,35.322 313.713 C 38.135 315.592,42.478 313.985,43.234 310.784 C 43.364 310.233,43.475 292.259,43.481 270.841 C 43.493 227.993,43.303 230.939,46.046 230.939 C 48.387 230.939,48.250 229.956,48.250 246.794 L 48.250 261.484 49.394 262.786 C 51.319 264.980,54.741 264.214,55.439 261.434 C 55.559 260.952,55.608 252.941,55.546 243.631 L 55.433 226.703 54.452 224.862 C 52.426 221.057,49.180 218.711,44.993 218.025 C 42.601 217.633,17.044 217.633,15.101 218.024 M102.578 218.022 C 96.976 219.377,94.770 222.271,91.745 232.228 C 89.280 240.345,88.677 242.310,88.415 243.094 C 88.245 243.600,87.740 245.258,87.293 246.777 C 86.846 248.297,86.165 250.520,85.781 251.718 C 84.118 256.906,86.638 260.589,90.503 258.617 C 92.115 257.795,92.428 257.257,93.542 253.407 C 93.982 251.888,94.480 250.230,94.650 249.724 C 94.820 249.217,95.402 247.311,95.943 245.488 C 96.484 243.665,97.060 241.759,97.224 241.252 C 97.387 240.746,97.725 239.586,97.974 238.674 C 98.224 237.762,98.555 236.602,98.711 236.096 C 98.866 235.589,99.207 234.429,99.467 233.517 C 100.144 231.149,103.409 229.685,104.086 231.448 C 104.246 231.866,101.925 240.924,100.581 245.120 C 100.387 245.727,99.638 248.379,98.918 251.013 C 97.297 256.935,96.861 258.495,96.501 259.669 C 96.202 260.642,96.055 261.162,94.263 267.587 C 92.148 275.172,92.145 275.186,92.588 275.348 C 92.816 275.431,95.488 275.542,98.527 275.595 L 104.052 275.691 104.236 293.755 C 104.441 313.890,104.344 313.172,106.997 314.131 C 108.778 314.774,110.949 314.142,111.993 312.676 C 112.676 311.716,112.707 310.898,112.707 293.819 C 112.707 273.766,112.517 275.016,115.533 275.209 L 117.311 275.322 117.495 293.436 C 117.704 313.937,117.565 313.043,120.720 314.158 C 122.085 314.640,122.360 314.626,123.748 314.000 C 126.224 312.884,126.133 313.597,126.335 293.738 L 126.519 275.691 132.320 275.589 C 136.757 275.512,138.122 275.376,138.122 275.013 C 138.122 274.752,137.528 272.477,136.803 269.958 C 136.077 267.439,135.345 264.797,135.175 264.088 C 135.005 263.379,134.094 260.147,133.150 256.906 C 131.407 250.918,131.247 250.360,130.261 246.777 C 129.954 245.663,129.179 242.928,128.538 240.700 C 125.987 231.835,125.981 231.809,126.454 231.336 C 126.979 230.811,129.904 230.825,130.231 231.354 C 130.467 231.735,132.257 237.364,132.970 239.963 C 133.136 240.571,133.631 242.228,134.070 243.646 C 134.509 245.064,135.006 246.722,135.175 247.330 C 137.676 256.320,138.419 258.002,140.224 258.756 C 143.540 260.141,146.355 256.955,145.145 253.186 C 144.957 252.598,144.437 250.875,143.989 249.355 C 143.542 247.836,142.805 245.433,142.351 244.015 C 141.898 242.597,141.164 240.193,140.720 238.674 C 140.276 237.155,139.776 235.497,139.608 234.991 C 139.440 234.484,138.934 232.827,138.483 231.308 C 136.538 224.758,135.661 223.130,132.896 220.940 C 129.058 217.899,127.766 217.672,114.563 217.717 C 108.579 217.738,103.186 217.875,102.578 218.022 " stroke="none" fill="#cc1d2d" fill-rule="evenodd"></path><path id="path1" d="M0.006 54.788 C 0.009 90.296,0.137 109.382,0.368 109.024 C 0.565 108.720,0.728 108.108,0.731 107.664 C 0.734 107.221,0.902 106.755,1.105 106.630 C 1.308 106.505,1.473 105.925,1.473 105.341 C 1.473 104.757,1.639 104.177,1.842 104.052 C 2.044 103.926,2.210 103.429,2.210 102.947 C 2.210 102.464,2.376 101.967,2.578 101.842 C 2.781 101.716,2.947 101.207,2.947 100.710 C 2.947 100.213,3.095 99.518,3.276 99.166 C 3.456 98.815,4.052 97.035,4.598 95.212 C 5.145 93.389,5.742 91.609,5.927 91.257 C 6.111 90.906,6.262 90.211,6.262 89.714 C 6.262 89.216,6.427 88.707,6.630 88.582 C 6.832 88.457,6.998 87.877,6.998 87.293 C 6.998 86.709,7.164 86.129,7.366 86.004 C 7.569 85.878,7.735 85.444,7.735 85.038 C 7.735 81.565,13.075 75.942,17.319 74.946 C 20.720 74.148,44.199 74.679,44.199 75.554 C 44.199 75.731,44.422 75.875,44.695 75.875 C 47.188 75.875,53.039 82.458,53.039 85.264 C 53.039 85.748,53.204 86.247,53.407 86.372 C 53.610 86.497,53.775 87.006,53.775 87.504 C 53.775 88.001,53.933 88.696,54.125 89.047 C 54.455 89.649,55.870 94.144,56.761 97.422 C 56.982 98.232,57.312 99.183,57.494 99.535 C 57.677 99.886,57.827 100.510,57.827 100.921 C 57.827 101.331,57.978 101.955,58.162 102.307 C 58.347 102.659,58.936 104.438,59.470 106.262 C 60.005 108.085,60.600 109.957,60.792 110.422 C 62.027 113.413,59.736 117.127,56.657 117.127 C 55.303 117.127,52.670 115.282,52.670 114.333 C 52.670 114.041,52.521 113.514,52.339 113.163 C 52.009 112.524,50.606 108.109,49.738 104.972 C 49.485 104.061,49.130 102.934,48.949 102.469 C 48.767 102.004,48.619 101.297,48.619 100.898 C 48.619 100.500,48.468 99.886,48.283 99.535 C 48.099 99.183,47.510 97.403,46.975 95.580 C 46.440 93.757,45.846 91.884,45.653 91.419 C 45.461 90.954,45.304 90.249,45.304 89.854 C 45.304 89.237,45.044 89.134,43.488 89.134 L 41.672 89.134 42.050 90.331 C 42.258 90.990,42.508 91.943,42.605 92.449 C 42.702 92.956,42.922 93.702,43.094 94.107 C 43.266 94.512,43.491 95.258,43.593 95.764 C 43.695 96.271,43.947 97.265,44.153 97.974 C 44.358 98.683,44.687 99.843,44.883 100.552 C 45.080 101.262,45.510 102.753,45.840 103.867 C 47.084 108.073,47.201 108.494,47.383 109.392 C 47.485 109.899,47.710 110.645,47.882 111.050 C 48.054 111.455,48.279 112.201,48.381 112.707 C 48.566 113.622,49.093 115.563,49.729 117.680 C 50.253 119.420,51.225 122.714,51.631 124.125 C 51.835 124.834,52.088 125.955,52.193 126.615 C 52.298 127.275,52.531 127.906,52.711 128.018 C 52.891 128.129,53.039 128.675,53.039 129.230 C 53.039 129.785,53.217 130.418,53.436 130.637 C 53.654 130.855,53.779 131.510,53.712 132.091 L 53.591 133.149 47.790 133.251 L 41.989 133.352 41.988 151.114 C 41.986 167.952,41.950 168.937,41.282 170.031 C 39.281 173.314,34.469 173.064,32.775 169.589 C 32.078 168.160,32.044 167.293,32.044 150.712 L 32.044 133.333 30.203 133.333 L 28.361 133.333 28.361 151.438 L 28.361 169.543 26.872 170.959 C 24.791 172.939,22.633 172.921,20.123 170.902 C 18.743 169.792,18.682 168.899,18.763 150.930 L 18.843 133.352 13.013 133.251 L 7.182 133.149 7.062 132.097 C 6.996 131.518,7.101 130.606,7.295 130.071 C 7.490 129.536,7.828 128.435,8.046 127.624 C 8.264 126.814,8.863 124.791,9.378 123.129 C 9.892 121.467,10.313 119.778,10.313 119.376 C 10.313 118.973,10.461 118.553,10.641 118.441 C 10.821 118.330,11.070 117.657,11.193 116.946 C 11.317 116.235,11.519 115.072,11.643 114.361 C 11.767 113.650,12.015 112.978,12.195 112.866 C 12.376 112.755,12.523 112.334,12.523 111.932 C 12.523 111.530,12.944 109.840,13.458 108.178 C 13.973 106.516,14.570 104.494,14.786 103.683 C 15.002 102.873,15.326 101.829,15.508 101.364 C 15.689 100.899,15.838 100.121,15.838 99.636 C 15.838 99.151,15.985 98.663,16.166 98.552 C 16.346 98.440,16.579 97.809,16.684 97.149 C 16.789 96.489,17.056 95.327,17.277 94.567 C 17.498 93.808,17.820 92.647,17.991 91.989 C 18.162 91.331,18.422 90.419,18.568 89.963 C 18.818 89.186,18.730 89.134,17.152 89.134 C 15.614 89.134,15.470 89.212,15.470 90.034 C 15.470 90.528,15.304 91.035,15.101 91.160 C 14.899 91.285,14.733 91.795,14.733 92.292 C 14.733 92.789,14.574 93.484,14.380 93.836 C 14.185 94.187,13.591 95.967,13.058 97.790 C 12.525 99.613,11.938 101.393,11.754 101.745 C 11.569 102.096,11.418 102.710,11.418 103.108 C 11.418 103.507,11.270 104.213,11.088 104.679 C 10.907 105.144,10.577 106.188,10.356 106.998 C 8.651 113.250,7.212 116.390,6.052 116.390 C 5.762 116.390,5.525 116.556,5.525 116.759 C 5.525 117.634,2.740 117.122,1.373 115.995 L -0.000 114.863 -0.000 241.594 L 0.000 368.324 200.000 368.324 L 400.000 368.324 400.000 241.550 C 400.000 140.080,399.908 114.887,399.540 115.333 C 398.330 116.795,394.475 117.881,394.475 116.759 C 394.475 116.556,394.238 116.390,393.948 116.390 C 393.098 116.390,392.114 114.598,391.015 111.050 C 390.450 109.227,389.838 107.447,389.653 107.095 C 389.469 106.743,389.319 106.049,389.319 105.552 C 389.319 105.054,389.153 104.545,388.950 104.420 C 388.748 104.295,388.582 103.715,388.582 103.131 C 388.582 102.547,388.416 101.967,388.214 101.842 C 388.011 101.716,387.845 101.207,387.845 100.710 C 387.845 100.213,387.699 99.518,387.520 99.166 C 387.194 98.528,385.807 94.198,384.866 90.884 C 384.370 89.137,384.367 89.134,382.750 89.134 C 380.954 89.134,380.999 88.956,381.961 92.265 C 382.196 93.076,382.475 94.279,382.580 94.939 C 382.684 95.599,382.918 96.231,383.098 96.342 C 383.278 96.453,383.425 97.022,383.425 97.606 C 383.425 98.190,383.591 98.770,383.794 98.895 C 383.996 99.020,384.162 99.452,384.162 99.854 C 384.162 100.257,384.583 101.946,385.097 103.608 C 385.612 105.270,386.209 107.293,386.425 108.103 C 386.641 108.913,386.966 109.957,387.147 110.422 C 387.328 110.888,387.477 111.665,387.477 112.150 C 387.477 112.635,387.643 113.134,387.845 113.260 C 388.048 113.385,388.214 113.965,388.214 114.549 C 388.214 115.133,388.379 115.713,388.582 115.838 C 388.785 115.963,388.950 116.395,388.950 116.797 C 388.950 117.200,389.371 118.889,389.886 120.551 C 390.400 122.213,390.997 124.236,391.213 125.046 C 391.429 125.856,391.754 126.900,391.935 127.365 C 392.117 127.831,392.265 128.585,392.265 129.041 C 392.265 129.498,392.443 130.049,392.660 130.266 C 392.878 130.484,393.002 131.221,392.937 131.905 L 392.818 133.149 387.308 133.252 C 383.467 133.323,381.712 133.490,381.513 133.804 C 381.355 134.052,381.224 142.194,381.221 151.899 L 381.215 169.543 379.727 170.959 C 377.573 173.008,375.282 173.008,373.128 170.959 L 371.639 169.543 371.639 151.438 L 371.639 133.333 369.797 133.333 L 367.956 133.333 367.948 150.737 C 367.938 171.708,367.783 172.376,362.922 172.376 C 358.168 172.376,358.011 171.672,358.011 150.424 L 358.011 133.352 352.210 133.251 L 346.409 133.149 346.288 132.091 C 346.221 131.510,346.346 130.855,346.564 130.637 C 346.783 130.418,346.961 129.866,346.961 129.410 C 346.961 128.953,347.110 128.199,347.291 127.734 C 347.473 127.268,347.798 126.225,348.013 125.414 C 348.229 124.604,348.827 122.581,349.341 120.919 C 349.855 119.257,350.276 117.568,350.276 117.166 C 350.276 116.763,350.442 116.331,350.645 116.206 C 350.847 116.081,351.013 115.582,351.013 115.097 C 351.013 114.612,351.161 113.834,351.343 113.369 C 351.524 112.904,351.847 111.860,352.060 111.050 C 352.274 110.239,352.871 108.199,353.388 106.515 C 353.905 104.831,354.328 103.142,354.328 102.761 C 354.328 102.381,354.494 101.967,354.696 101.842 C 354.899 101.716,355.064 101.136,355.064 100.552 C 355.064 99.969,355.230 99.389,355.433 99.263 C 355.635 99.138,355.801 98.475,355.801 97.790 C 355.801 97.105,355.967 96.442,356.169 96.317 C 356.372 96.192,356.538 95.738,356.538 95.308 C 356.538 94.536,356.910 93.202,357.877 90.516 L 358.373 89.134 356.535 89.134 C 354.829 89.134,354.696 89.199,354.696 90.038 C 354.696 90.535,354.541 91.322,354.352 91.787 C 354.163 92.253,353.571 94.125,353.036 95.948 C 352.502 97.772,351.911 99.551,351.723 99.903 C 351.535 100.255,351.381 100.949,351.381 101.447 C 351.381 101.944,351.215 102.453,351.013 102.578 C 350.810 102.703,350.645 103.213,350.645 103.710 C 350.645 104.207,350.495 104.902,350.312 105.254 C 350.129 105.605,349.773 106.639,349.520 107.551 C 347.449 115.019,346.067 117.127,343.243 117.127 C 338.924 117.127,337.862 111.058,341.101 104.885 C 341.285 104.534,341.436 103.839,341.436 103.342 C 341.436 102.844,341.602 102.335,341.805 102.210 C 342.007 102.085,342.173 101.575,342.173 101.078 C 342.173 100.581,342.324 99.886,342.509 99.535 C 342.693 99.183,343.287 97.403,343.829 95.580 C 344.370 93.757,344.985 91.685,345.196 90.976 C 345.406 90.267,345.724 89.399,345.902 89.047 C 346.079 88.696,346.225 88.001,346.225 87.504 C 346.225 87.006,346.390 86.497,346.593 86.372 C 346.796 86.247,346.961 85.805,346.961 85.390 C 346.961 82.490,352.186 75.875,354.477 75.875 C 354.800 75.875,355.064 75.727,355.064 75.547 C 355.064 74.698,378.033 74.158,381.584 74.923 C 386.213 75.920,392.265 81.491,392.265 84.754 C 392.265 85.143,392.411 85.749,392.588 86.101 C 392.766 86.453,393.073 87.320,393.272 88.029 C 394.075 90.907,395.692 95.989,395.994 96.588 C 396.172 96.940,396.317 97.564,396.317 97.974 C 396.317 98.385,396.466 99.009,396.649 99.360 C 396.832 99.712,397.182 100.746,397.428 101.657 C 397.673 102.569,398.004 103.646,398.162 104.052 C 398.321 104.457,398.792 105.866,399.210 107.182 L 399.968 109.576 399.984 54.788 L 400.000 0.000 200.000 0.000 L 0.000 0.000 0.006 54.788 M34.879 54.347 C 36.892 55.418,38.674 56.997,38.674 57.712 C 38.674 57.978,38.799 58.195,38.952 58.195 C 40.363 58.195,40.712 65.116,39.437 67.821 C 36.613 73.816,27.650 75.244,23.107 70.424 C 15.432 62.280,25.062 49.129,34.879 54.347 M119.468 54.355 C 129.324 59.288,126.089 73.405,115.101 73.412 C 104.925 73.418,101.286 58.793,110.403 54.533 C 110.961 54.272,111.667 53.921,111.971 53.754 C 113.272 53.038,117.515 53.378,119.468 54.355 M204.500 54.334 C 214.093 59.152,210.760 73.297,200.033 73.297 C 189.217 73.297,186.040 59.357,195.692 54.246 C 197.976 53.037,201.998 53.077,204.500 54.334 M287.942 53.732 C 288.294 53.911,289.043 54.273,289.606 54.537 C 295.573 57.331,296.749 66.244,291.752 70.805 C 286.742 75.379,278.957 73.948,275.835 67.879 C 274.825 65.915,274.555 60.841,275.414 59.982 C 275.668 59.728,275.875 59.299,275.875 59.027 C 275.875 55.802,284.538 52.001,287.942 53.732 M374.045 54.188 C 375.739 54.984,378.637 57.895,378.637 58.800 C 378.637 59.075,378.781 59.300,378.957 59.300 C 379.293 59.300,379.823 61.780,379.823 63.352 C 379.823 64.923,379.293 67.403,378.957 67.403 C 378.781 67.403,378.637 67.622,378.637 67.890 C 378.637 68.157,378.078 69.027,377.394 69.823 C 372.694 75.297,363.955 74.276,360.713 67.874 C 359.792 66.053,359.441 60.335,360.221 59.853 C 360.424 59.727,360.589 59.379,360.589 59.079 C 360.589 58.778,360.758 58.332,360.965 58.088 C 361.171 57.843,361.741 57.158,362.230 56.565 C 364.730 53.533,370.278 52.417,374.045 54.188 M126.905 74.908 C 129.549 74.980,132.035 75.208,132.430 75.414 C 132.826 75.620,133.636 76.015,134.232 76.292 C 136.878 77.523,139.428 80.880,140.651 84.741 C 141.353 86.955,141.223 118.176,140.507 119.612 C 139.147 122.338,135.609 122.824,133.728 120.542 L 132.597 119.169 132.597 104.152 L 132.597 89.134 130.755 89.134 L 128.913 89.134 128.913 128.523 C 128.913 154.385,128.787 167.991,128.545 168.140 C 128.343 168.265,128.177 168.676,128.177 169.054 C 128.177 172.696,120.575 173.452,118.149 170.051 L 117.311 168.877 117.127 145.488 L 116.943 122.099 115.009 121.988 L 113.076 121.877 113.076 145.478 L 113.076 169.080 111.428 170.728 C 108.461 173.695,103.571 172.675,102.000 168.761 C 101.796 168.254,101.657 151.917,101.657 128.521 L 101.657 89.134 99.816 89.134 L 97.974 89.134 97.972 103.959 C 97.970 117.686,97.920 118.860,97.298 119.803 C 95.598 122.381,92.907 122.717,90.804 120.614 L 89.503 119.312 89.503 101.851 C 89.503 90.607,89.634 84.309,89.871 84.162 C 90.074 84.037,90.239 83.610,90.239 83.215 C 90.239 82.037,91.239 80.474,93.383 78.302 C 95.159 76.503,96.913 75.596,100.000 74.881 C 101.345 74.570,114.988 74.584,126.905 74.908 M211.321 74.819 C 218.363 76.495,221.334 79.870,223.919 89.134 C 224.173 90.046,224.531 91.080,224.714 91.431 C 224.896 91.783,225.046 92.407,225.046 92.818 C 225.046 93.228,225.196 93.852,225.378 94.204 C 225.561 94.556,225.911 95.589,226.155 96.501 C 226.399 97.413,226.818 98.738,227.086 99.448 C 227.987 101.830,229.098 105.672,229.098 106.409 C 229.098 106.810,229.263 107.241,229.466 107.366 C 229.669 107.492,229.834 108.072,229.834 108.656 C 229.834 109.239,230.000 109.820,230.203 109.945 C 231.493 110.742,230.019 116.390,228.520 116.390 C 228.230 116.390,227.993 116.556,227.993 116.759 C 227.993 116.961,227.337 117.127,226.535 117.127 C 224.624 117.127,222.458 115.120,221.766 112.707 C 221.505 111.796,221.141 110.762,220.959 110.410 C 220.776 110.058,220.626 109.352,220.626 108.840 C 220.626 108.328,220.481 107.621,220.303 107.269 C 220.125 106.918,219.808 106.050,219.597 105.341 C 219.387 104.632,218.772 102.560,218.230 100.737 C 217.689 98.913,217.095 97.134,216.910 96.782 C 216.726 96.430,216.575 95.736,216.575 95.239 C 216.575 94.741,216.409 94.232,216.206 94.107 C 216.004 93.982,215.838 93.425,215.838 92.870 C 215.838 92.314,215.686 91.703,215.501 91.510 C 215.315 91.318,215.108 90.746,215.040 90.239 C 214.931 89.423,214.719 89.306,213.168 89.206 C 211.320 89.088,211.007 89.459,211.750 90.889 C 212.377 92.094,214.935 101.248,215.353 103.779 C 215.462 104.439,215.698 105.070,215.879 105.182 C 216.059 105.293,216.206 105.862,216.206 106.446 C 216.206 107.029,216.372 107.610,216.575 107.735 C 216.777 107.860,216.943 108.369,216.943 108.867 C 216.943 109.364,217.093 110.058,217.277 110.410 C 217.748 111.310,219.214 116.336,219.426 117.775 C 219.523 118.435,219.750 119.067,219.930 119.178 C 220.110 119.289,220.258 119.941,220.258 120.626 C 220.258 121.311,220.424 121.974,220.626 122.099 C 220.829 122.225,220.994 122.805,220.994 123.389 C 220.994 123.972,221.160 124.553,221.363 124.678 C 221.565 124.803,221.731 125.312,221.731 125.809 C 221.731 126.307,221.874 127.001,222.048 127.353 C 222.543 128.355,223.573 131.715,223.573 132.330 C 223.573 133.210,222.756 133.333,216.913 133.333 L 211.418 133.333 211.406 151.473 C 211.394 171.031,211.495 170.045,209.335 171.560 C 207.282 173.001,204.154 172.382,202.707 170.249 C 202.071 169.312,202.019 168.048,201.917 151.289 L 201.809 133.333 199.997 133.333 L 198.185 133.333 198.080 151.289 C 197.981 168.051,197.929 169.312,197.293 170.249 C 195.846 172.382,192.718 173.001,190.665 171.560 C 188.505 170.045,188.606 171.031,188.594 151.473 L 188.582 133.333 182.918 133.333 C 176.244 133.333,175.955 133.203,176.931 130.647 C 177.262 129.781,177.532 128.715,177.532 128.278 C 177.532 127.841,177.680 127.393,177.860 127.281 C 178.040 127.170,178.277 126.538,178.386 125.878 C 178.715 123.887,179.044 122.508,179.374 121.731 C 179.546 121.326,179.771 120.580,179.873 120.074 C 180.055 119.176,180.172 118.754,181.416 114.549 C 182.577 110.622,182.759 109.933,182.948 108.744 C 183.053 108.084,183.286 107.453,183.466 107.341 C 183.646 107.230,183.794 106.742,183.794 106.257 C 183.794 105.772,183.942 104.995,184.124 104.529 C 184.305 104.064,184.630 103.020,184.846 102.210 C 185.062 101.400,185.659 99.377,186.173 97.715 C 186.688 96.053,187.109 94.364,187.109 93.961 C 187.109 93.559,187.274 93.127,187.477 93.002 C 187.680 92.877,187.845 92.297,187.845 91.713 C 187.845 91.129,188.011 90.549,188.214 90.424 C 189.196 89.816,188.532 89.134,186.959 89.134 L 185.336 89.134 184.718 91.252 C 184.379 92.417,183.949 93.658,183.763 94.010 C 183.577 94.361,183.425 95.056,183.425 95.553 C 183.425 96.051,183.260 96.560,183.057 96.685 C 182.855 96.810,182.689 97.310,182.689 97.794 C 182.689 98.279,182.539 99.057,182.356 99.522 C 182.173 99.988,181.586 101.860,181.052 103.683 C 180.517 105.506,179.921 107.286,179.727 107.638 C 179.533 107.989,179.374 108.684,179.374 109.181 C 179.374 109.679,179.208 110.188,179.006 110.313 C 178.803 110.438,178.637 110.948,178.637 111.445 C 178.637 112.347,178.525 112.653,177.431 114.733 C 175.913 117.617,171.799 117.824,170.018 115.106 C 169.360 114.101,169.198 110.315,169.797 109.945 C 170.000 109.820,170.166 109.310,170.166 108.813 C 170.166 108.316,170.317 107.621,170.501 107.269 C 170.686 106.918,171.273 105.138,171.806 103.315 C 172.338 101.492,172.933 99.712,173.127 99.360 C 173.322 99.009,173.481 98.314,173.481 97.817 C 173.481 97.320,173.646 96.810,173.849 96.685 C 174.052 96.560,174.217 96.051,174.217 95.553 C 174.217 95.056,174.367 94.361,174.550 94.010 C 174.733 93.658,175.088 92.624,175.339 91.713 C 176.570 87.242,177.811 83.532,178.779 81.426 C 179.369 80.141,182.668 76.611,183.278 76.611 C 183.562 76.611,183.794 76.446,183.794 76.243 C 183.794 76.041,184.125 75.875,184.530 75.875 C 184.936 75.875,185.267 75.709,185.267 75.506 C 185.267 75.304,185.723 75.136,186.280 75.132 C 186.837 75.129,187.541 74.966,187.845 74.770 C 188.645 74.253,209.123 74.296,211.321 74.819 M296.070 74.913 C 299.567 74.998,301.873 75.207,302.129 75.462 C 302.356 75.689,302.798 75.875,303.112 75.875 C 303.633 75.876,304.636 76.590,306.630 78.379 C 307.915 79.532,309.024 81.018,309.024 81.587 C 309.024 81.889,309.149 82.136,309.303 82.136 C 310.501 82.136,311.229 117.649,310.075 119.806 C 308.964 121.883,305.729 122.658,303.999 121.263 C 302.061 119.699,302.026 119.389,302.026 103.702 L 302.026 89.134 300.368 89.134 L 298.711 89.134 298.711 128.146 C 298.711 171.909,298.875 169.247,296.037 171.412 C 294.724 172.414,290.239 172.874,290.239 172.007 C 290.239 171.805,290.003 171.639,289.714 171.639 C 289.425 171.639,288.679 171.021,288.056 170.266 L 286.924 168.893 286.924 145.404 L 286.924 121.915 285.096 121.915 L 283.267 121.915 283.162 145.028 L 283.057 168.140 282.202 169.515 C 280.121 172.862,276.067 173.528,273.327 170.973 C 272.476 170.179,271.823 169.230,271.823 168.785 C 271.823 168.353,271.657 167.897,271.455 167.772 C 271.213 167.622,271.087 154.078,271.087 128.339 L 271.087 89.134 269.245 89.134 L 267.403 89.134 267.403 104.009 C 267.403 120.005,267.362 120.379,265.486 121.420 C 263.424 122.565,261.240 121.961,259.747 119.833 C 258.561 118.142,258.463 86.908,259.634 83.703 C 261.275 79.215,265.569 75.198,268.819 75.112 C 269.357 75.098,270.129 74.955,270.534 74.794 C 271.211 74.525,282.153 74.576,296.070 74.913 M34.475 196.832 C 43.956 201.406,41.779 214.851,31.358 216.085 C 22.240 217.165,16.917 205.797,23.330 198.941 C 26.057 196.026,30.903 195.109,34.475 196.832 M118.416 196.317 C 118.541 196.519,118.942 196.685,119.307 196.685 C 119.672 196.685,120.703 197.331,121.600 198.120 C 130.944 206.345,120.988 220.724,110.157 214.645 C 103.538 210.930,103.689 200.212,110.403 197.074 C 110.961 196.813,111.667 196.463,111.971 196.296 C 112.762 195.860,118.145 195.878,118.416 196.317 M202.851 196.911 C 211.143 199.321,212.060 210.956,204.259 214.762 C 202.201 215.766,197.924 215.741,195.910 214.713 C 185.450 209.377,191.587 193.636,202.851 196.911 M288.495 197.053 C 295.001 199.487,296.606 208.271,291.423 213.076 C 288.472 215.813,283.713 216.325,280.293 214.273 C 269.973 208.078,277.232 192.838,288.495 197.053 M372.190 196.763 C 377.553 198.197,380.721 204.234,378.766 209.293 C 374.907 219.276,360.221 216.730,360.221 206.077 C 360.221 199.677,366.070 195.126,372.190 196.763 M126.056 217.393 C 127.628 217.640,128.913 217.971,128.913 218.129 C 128.913 218.287,129.157 218.416,129.455 218.416 C 130.455 218.416,132.768 219.947,134.450 221.723 C 136.843 224.249,137.215 225.108,140.039 234.622 C 140.250 235.331,140.567 236.199,140.745 236.551 C 140.923 236.903,141.068 237.598,141.068 238.095 C 141.068 238.592,141.234 239.101,141.436 239.227 C 141.639 239.352,141.805 239.861,141.805 240.358 C 141.805 240.855,141.953 241.550,142.134 241.902 C 142.315 242.254,142.910 244.033,143.456 245.856 C 144.003 247.680,144.601 249.459,144.785 249.811 C 144.969 250.163,145.120 250.857,145.120 251.354 C 145.120 251.852,145.285 252.361,145.488 252.486 C 146.512 253.119,145.891 257.031,144.555 258.367 C 142.252 260.670,137.385 259.309,137.385 256.363 C 137.385 255.977,137.219 255.558,137.017 255.433 C 136.814 255.308,136.648 254.798,136.648 254.301 C 136.648 253.804,136.500 253.109,136.319 252.757 C 136.138 252.406,135.542 250.626,134.994 248.803 C 134.446 246.980,133.848 245.107,133.666 244.642 C 133.483 244.177,133.333 243.399,133.333 242.914 C 133.333 242.429,133.168 241.930,132.965 241.805 C 132.762 241.680,132.597 241.170,132.597 240.673 C 132.597 240.176,132.451 239.481,132.274 239.129 C 132.096 238.778,131.787 237.910,131.587 237.201 C 131.388 236.492,130.919 234.959,130.545 233.794 L 129.866 231.676 128.242 231.676 C 126.654 231.676,126.623 231.699,126.871 232.689 C 127.010 233.246,127.214 234.242,127.323 234.902 C 127.432 235.562,127.669 236.194,127.849 236.305 C 128.029 236.416,128.177 236.985,128.177 237.569 C 128.177 238.153,128.343 238.733,128.545 238.858 C 128.748 238.983,128.913 239.356,128.913 239.687 C 128.913 240.017,129.340 241.707,129.862 243.440 C 130.383 245.174,130.980 247.256,131.187 248.066 C 131.394 248.877,131.713 249.827,131.896 250.179 C 132.079 250.531,132.228 251.238,132.228 251.750 C 132.228 252.261,132.380 252.968,132.566 253.320 C 132.752 253.672,133.180 254.954,133.517 256.169 C 133.855 257.385,134.449 259.409,134.837 260.666 C 135.226 261.924,135.543 263.282,135.543 263.683 C 135.543 264.085,135.709 264.516,135.912 264.641 C 136.114 264.766,136.280 265.346,136.280 265.930 C 136.280 266.514,136.446 267.094,136.648 267.219 C 136.851 267.344,137.017 268.007,137.017 268.692 C 137.017 269.378,137.163 270.029,137.342 270.140 C 137.522 270.250,137.757 270.799,137.865 271.358 C 137.973 271.918,138.222 272.992,138.418 273.746 C 138.933 275.721,138.605 275.841,132.387 275.957 L 126.888 276.059 126.792 294.033 C 126.687 313.807,126.761 313.178,124.400 314.356 C 122.382 315.363,120.362 315.096,118.739 313.610 L 117.311 312.303 117.206 294.089 L 117.101 275.875 115.291 275.875 L 113.482 275.875 113.371 294.069 C 113.263 311.656,113.235 312.289,112.524 313.075 C 110.277 315.556,106.943 315.556,104.701 313.076 L 103.868 312.155 103.868 294.024 L 103.867 275.893 97.882 275.792 L 91.897 275.691 91.940 274.586 C 91.964 273.978,92.437 271.989,92.992 270.166 C 93.547 268.343,94.084 266.311,94.187 265.650 C 94.289 264.990,94.520 264.359,94.700 264.247 C 94.880 264.136,95.028 263.567,95.028 262.983 C 95.028 262.400,95.193 261.819,95.396 261.694 C 95.599 261.569,95.764 261.070,95.764 260.585 C 95.764 260.100,95.913 259.322,96.094 258.857 C 96.276 258.392,96.870 256.354,97.414 254.328 C 97.958 252.302,98.556 250.357,98.741 250.005 C 98.927 249.653,99.079 248.959,99.079 248.461 C 99.079 247.964,99.245 247.455,99.448 247.330 C 99.650 247.204,99.816 246.541,99.816 245.856 C 99.816 245.171,99.982 244.508,100.184 244.383 C 100.387 244.258,100.552 243.678,100.552 243.094 C 100.552 242.510,100.700 241.941,100.880 241.830 C 101.060 241.719,101.294 241.087,101.399 240.427 C 101.726 238.370,102.421 235.927,102.784 235.562 C 102.975 235.369,103.131 234.757,103.131 234.202 C 103.131 233.647,103.297 233.090,103.499 232.965 C 103.702 232.840,103.867 232.499,103.867 232.207 C 103.867 231.517,100.593 231.450,100.400 232.136 C 100.329 232.390,100.067 233.343,99.817 234.254 C 99.567 235.166,99.235 236.326,99.079 236.832 C 98.924 237.339,98.586 238.499,98.330 239.411 C 98.073 240.322,97.496 242.228,97.048 243.646 C 96.599 245.064,96.028 246.971,95.778 247.882 C 95.528 248.794,95.175 249.827,94.992 250.179 C 94.809 250.531,94.659 251.226,94.659 251.723 C 94.659 252.220,94.494 252.729,94.291 252.855 C 94.088 252.980,93.923 253.456,93.923 253.912 C 93.923 255.456,92.189 258.456,90.935 259.081 C 86.039 261.524,82.892 255.890,85.865 250.005 C 86.042 249.653,86.188 249.029,86.188 248.619 C 86.188 248.208,86.333 247.584,86.511 247.233 C 86.689 246.881,87.006 246.013,87.217 245.304 C 87.427 244.595,88.042 242.523,88.584 240.700 C 89.125 238.877,89.719 237.097,89.904 236.745 C 90.088 236.394,90.239 235.770,90.239 235.359 C 90.239 234.948,90.391 234.325,90.577 233.973 C 90.762 233.621,91.273 232.090,91.712 230.571 C 92.876 226.541,93.594 224.634,94.414 223.389 C 95.499 221.742,98.060 219.153,98.603 219.153 C 98.865 219.153,99.079 218.987,99.079 218.785 C 99.079 218.582,99.330 218.416,99.637 218.416 C 99.943 218.416,100.482 218.267,100.834 218.084 C 103.026 216.946,120.220 216.474,126.056 217.393 M48.803 218.516 C 52.171 220.314,54.608 223.191,55.642 226.591 C 56.589 229.705,56.739 259.761,55.819 261.964 C 54.631 264.805,48.619 265.468,48.619 262.757 C 48.619 262.476,48.453 262.247,48.250 262.247 C 48.011 262.247,47.882 256.906,47.882 246.961 L 47.882 231.676 46.041 231.676 L 44.199 231.676 44.199 270.907 C 44.199 292.879,44.056 310.420,43.874 310.778 C 43.695 311.130,43.356 311.832,43.122 312.339 C 41.943 314.886,37.196 315.844,34.801 314.017 C 32.331 312.133,32.413 313.041,32.413 287.513 L 32.413 264.457 30.571 264.457 L 28.729 264.457 28.707 286.464 C 28.695 298.568,28.550 309.296,28.385 310.304 C 27.457 315.959,19.853 316.743,17.361 311.441 L 16.575 309.769 16.575 270.722 L 16.575 231.676 14.917 231.676 L 13.260 231.676 13.256 245.580 C 13.253 253.227,13.147 260.117,13.019 260.889 C 12.256 265.511,6.116 265.767,4.778 261.232 C 4.144 259.082,4.442 227.794,5.110 226.335 C 5.389 225.727,5.803 224.818,6.031 224.315 C 7.498 221.074,11.493 218.033,14.917 217.550 C 15.525 217.464,22.983 217.425,31.492 217.464 L 46.961 217.533 48.803 218.516 M217.864 218.769 C 221.408 220.512,223.965 223.502,224.893 226.989 C 225.559 229.491,225.657 260.716,225.003 261.995 C 223.562 264.812,219.574 264.775,218.301 261.933 C 217.998 261.256,217.807 256.391,217.680 246.041 L 217.495 231.123 215.903 231.009 C 213.029 230.802,213.260 227.315,213.259 271.040 C 213.258 314.857,213.435 311.899,210.719 313.713 C 208.509 315.189,206.229 314.904,204.226 312.901 L 202.578 311.253 202.578 287.847 L 202.578 264.441 201.750 264.065 C 201.241 263.835,200.351 263.809,199.448 263.998 L 197.974 264.305 197.790 287.694 C 197.619 309.436,197.559 311.154,196.941 312.097 C 195.293 314.612,191.708 315.335,189.445 313.609 C 186.949 311.705,187.109 314.601,187.109 271.150 C 187.109 227.090,187.371 230.813,184.283 231.010 L 182.505 231.123 182.409 246.041 C 182.297 263.653,182.198 264.094,178.344 264.087 C 174.880 264.080,174.583 262.565,174.599 244.973 C 174.614 226.711,174.942 224.650,178.329 221.513 C 182.427 217.718,182.572 217.694,200.737 217.786 L 216.022 217.864 217.864 218.769 M297.631 218.274 C 301.816 219.516,307.182 224.806,307.182 227.689 C 307.182 228.118,308.833 233.622,310.476 238.674 C 310.839 239.788,311.321 241.363,311.548 242.173 C 311.774 242.983,312.446 245.180,313.040 247.053 C 315.307 254.203,315.490 255.260,314.734 256.852 C 313.940 258.525,312.173 259.523,310.673 259.147 C 308.547 258.613,307.636 257.093,306.020 251.381 C 305.790 250.571,305.398 249.245,305.149 248.435 C 304.899 247.624,304.320 245.718,303.862 244.199 C 303.404 242.680,302.720 240.456,302.343 239.258 C 301.966 238.059,301.657 236.856,301.657 236.582 C 301.657 236.309,301.512 235.798,301.334 235.446 C 301.157 235.094,300.804 234.144,300.551 233.333 C 299.893 231.228,299.554 230.939,297.745 230.939 C 295.844 230.939,295.688 231.357,296.508 234.254 C 296.709 234.963,297.717 238.527,298.750 242.173 C 299.782 245.820,300.761 249.300,300.925 249.908 C 301.089 250.516,301.580 252.256,302.017 253.775 C 302.455 255.295,302.956 257.118,303.131 257.827 C 303.498 259.311,303.934 260.857,304.791 263.720 C 305.361 265.623,306.418 269.269,307.246 272.192 C 307.447 272.901,307.699 273.936,307.807 274.494 L 308.003 275.506 302.068 275.506 L 296.133 275.506 296.133 293.405 C 296.133 313.296,296.198 312.749,293.672 313.954 C 292.014 314.745,291.169 314.704,289.478 313.754 C 287.416 312.595,287.492 313.301,287.293 293.554 L 287.109 275.322 285.557 275.210 C 282.265 274.971,282.505 273.513,282.505 293.764 C 282.505 313.450,282.578 312.802,280.201 313.988 C 278.691 314.741,277.404 314.692,275.985 313.827 C 273.626 312.389,273.665 312.737,273.665 293.204 L 273.665 275.506 267.978 275.506 C 264.711 275.506,262.197 275.355,262.070 275.150 C 261.885 274.851,262.557 272.147,264.406 265.746 C 264.582 265.138,264.910 263.978,265.136 263.168 C 265.361 262.357,266.133 259.622,266.851 257.090 C 267.569 254.558,268.340 251.823,268.566 251.013 C 268.792 250.203,269.123 249.042,269.303 248.435 C 269.482 247.827,270.302 244.926,271.124 241.989 C 271.946 239.052,272.771 236.110,272.957 235.451 C 274.132 231.304,274.055 230.939,272.004 230.939 C 270.470 230.939,269.831 231.539,269.260 233.517 C 268.997 234.429,268.559 235.838,268.287 236.648 C 267.817 238.052,266.204 243.505,265.564 245.856 C 262.249 258.031,260.697 260.454,257.259 258.814 C 254.684 257.587,254.142 255.821,255.248 252.271 C 256.243 249.078,256.455 248.386,258.008 243.278 C 258.746 240.847,259.488 238.444,259.656 237.937 C 259.823 237.431,260.331 235.773,260.785 234.254 C 264.251 222.636,265.889 220.098,271.087 218.291 C 273.571 217.427,294.735 217.413,297.631 218.274 M387.477 218.828 C 391.499 220.744,393.807 223.593,394.698 227.745 C 395.355 230.806,395.422 259.065,394.778 261.216 C 393.686 264.858,389.152 265.131,387.823 261.635 C 387.629 261.125,387.474 254.380,387.471 246.293 C 387.465 230.215,387.566 230.849,385.047 231.009 L 383.241 231.123 383.057 270.718 C 382.886 307.571,382.828 310.402,382.224 311.602 C 380.262 315.503,374.614 315.498,372.653 311.595 C 372.060 310.415,372.008 308.471,372.008 287.230 L 372.007 264.147 370.994 263.943 C 370.437 263.831,369.401 263.866,368.692 264.021 L 367.403 264.303 367.219 287.877 C 367.015 313.998,367.146 312.691,364.598 313.963 C 362.115 315.201,359.171 314.484,357.580 312.252 L 356.722 311.050 356.622 271.287 C 356.544 240.346,356.421 231.461,356.069 231.238 C 355.821 231.080,354.830 230.948,353.867 230.945 L 352.118 230.939 352.118 245.684 C 352.118 263.301,351.943 264.088,348.035 264.088 C 344.402 264.088,344.316 263.590,344.454 243.462 L 344.567 227.072 345.529 225.021 C 347.161 221.541,350.281 218.939,353.862 218.071 C 354.624 217.886,362.044 217.764,370.350 217.799 L 385.451 217.864 387.477 218.828 " stroke="none" fill="#ffffff" fill-rule="evenodd"></path><path id="path2" d="M25.783 54.311 C 19.809 57.446,18.471 65.505,23.107 70.424 C 27.650 75.244,36.613 73.816,39.437 67.821 C 40.712 65.116,40.363 58.195,38.952 58.195 C 38.799 58.195,38.674 57.978,38.674 57.712 C 38.674 54.520,29.831 52.187,25.783 54.311 M111.971 53.754 C 111.667 53.921,110.961 54.272,110.403 54.533 C 101.286 58.793,104.925 73.418,115.101 73.412 C 126.089 73.405,129.324 59.288,119.468 54.355 C 117.515 53.378,113.272 53.038,111.971 53.754 M195.692 54.246 C 186.040 59.357,189.217 73.297,200.033 73.297 C 210.760 73.297,214.093 59.152,204.500 54.334 C 201.998 53.077,197.976 53.037,195.692 54.246 M280.721 54.219 C 278.625 55.235,275.875 57.963,275.875 59.027 C 275.875 59.299,275.668 59.728,275.414 59.982 C 274.555 60.841,274.825 65.915,275.835 67.879 C 278.957 73.948,286.742 75.379,291.752 70.805 C 296.749 66.244,295.573 57.331,289.606 54.537 C 289.043 54.273,288.294 53.911,287.942 53.732 C 286.709 53.105,282.423 53.394,280.721 54.219 M364.893 54.474 C 363.917 55.031,362.719 55.972,362.230 56.565 C 361.741 57.158,361.171 57.843,360.965 58.088 C 360.758 58.332,360.589 58.778,360.589 59.079 C 360.589 59.379,360.424 59.727,360.221 59.853 C 359.441 60.335,359.792 66.053,360.713 67.874 C 363.955 74.276,372.694 75.297,377.394 69.823 C 378.078 69.027,378.637 68.157,378.637 67.890 C 378.637 67.622,378.781 67.403,378.957 67.403 C 379.293 67.403,379.823 64.923,379.823 63.352 C 379.823 61.780,379.293 59.300,378.957 59.300 C 378.781 59.300,378.637 59.075,378.637 58.800 C 378.637 57.895,375.739 54.984,374.045 54.188 C 371.495 52.989,367.263 53.122,364.893 54.474 M34.127 54.578 C 43.165 58.826,40.959 72.036,31.076 72.855 C 23.888 73.451,18.606 65.796,21.696 59.263 C 23.889 54.625,29.627 52.462,34.127 54.578 M117.678 54.221 C 123.264 55.715,126.469 62.390,124.010 67.403 C 120.424 74.712,110.070 74.825,106.649 67.593 C 103.141 60.178,109.794 52.112,117.678 54.221 M202.963 54.241 C 211.362 57.169,211.926 68.290,203.867 72.060 C 196.134 75.677,187.654 67.190,191.303 59.484 C 193.417 55.020,198.561 52.707,202.963 54.241 M288.108 54.522 C 298.071 58.340,295.512 72.988,284.899 72.892 C 282.132 72.867,280.757 72.370,278.704 70.652 C 270.692 63.945,278.363 50.787,288.108 54.522 M373.562 54.649 C 379.892 57.492,381.256 65.899,376.119 70.409 C 369.858 75.906,360.221 71.641,360.221 63.373 C 360.221 56.371,367.214 51.797,373.562 54.649 M18.416 74.761 C 18.112 74.962,17.497 75.129,17.048 75.132 C 13.859 75.155,7.735 81.669,7.735 85.038 C 7.735 85.444,7.569 85.878,7.366 86.004 C 7.164 86.129,6.998 86.709,6.998 87.293 C 6.998 87.877,6.832 88.457,6.630 88.582 C 6.427 88.707,6.262 89.216,6.262 89.714 C 6.262 90.211,6.111 90.906,5.927 91.257 C 5.742 91.609,5.145 93.389,4.598 95.212 C 4.052 97.035,3.456 98.815,3.276 99.166 C 3.095 99.518,2.947 100.213,2.947 100.710 C 2.947 101.207,2.781 101.716,2.578 101.842 C 2.376 101.967,2.210 102.464,2.210 102.947 C 2.210 103.429,2.044 103.926,1.842 104.052 C 1.639 104.177,1.473 104.757,1.473 105.341 C 1.473 105.925,1.327 106.493,1.147 106.604 C 0.968 106.714,0.735 107.263,0.629 107.822 C 0.524 108.382,0.316 109.254,0.168 109.761 C -0.012 110.379,0.022 110.561,0.272 110.313 C 0.476 110.110,1.094 108.453,1.645 106.630 C 2.196 104.807,2.786 102.901,2.956 102.394 C 3.126 101.888,3.628 100.230,4.072 98.711 C 4.516 97.192,5.248 94.788,5.699 93.370 C 6.150 91.952,6.732 90.046,6.992 89.134 C 8.841 82.658,9.635 80.936,11.743 78.835 C 15.207 75.384,15.423 75.338,29.054 75.211 C 42.285 75.088,43.433 75.235,46.777 77.491 C 49.209 79.131,51.492 81.997,52.239 84.346 C 52.950 86.583,54.426 91.424,55.270 94.291 C 55.717 95.810,56.326 97.799,56.622 98.711 C 57.419 101.158,59.637 108.552,60.234 110.753 C 61.099 113.939,59.572 116.390,56.722 116.390 C 54.392 116.390,53.245 115.085,52.181 111.224 C 51.875 110.115,51.266 108.048,50.828 106.630 C 50.390 105.212,49.894 103.554,49.727 102.947 C 49.560 102.339,48.645 99.273,47.693 96.133 C 46.742 92.993,45.878 90.049,45.774 89.591 C 45.562 88.657,44.544 88.285,42.684 88.463 C 41.125 88.612,41.131 89.324,42.746 95.014 C 43.352 97.149,44.105 99.807,44.421 100.921 C 44.736 102.035,45.128 103.361,45.291 103.867 C 45.453 104.374,45.766 105.451,45.984 106.262 C 46.203 107.072,46.731 108.978,47.158 110.497 C 47.585 112.017,48.108 113.923,48.319 114.733 C 48.531 115.543,48.837 116.621,49.000 117.127 C 49.445 118.510,51.736 126.656,52.367 129.098 C 52.576 129.908,52.904 130.970,53.096 131.458 C 53.627 132.809,52.952 132.991,48.395 132.730 C 46.145 132.601,43.701 132.608,42.963 132.747 L 41.621 132.998 41.621 150.791 L 41.621 168.584 40.792 169.802 C 39.193 172.153,35.790 172.377,33.802 170.261 L 32.965 169.370 32.781 151.076 L 32.597 132.781 30.387 132.781 L 28.177 132.781 27.993 150.894 C 27.815 168.413,27.784 169.041,27.056 170.016 C 25.336 172.319,21.602 172.218,19.990 169.826 L 19.153 168.584 19.153 150.784 L 19.153 132.984 13.352 132.882 L 7.551 132.781 7.608 131.860 C 7.640 131.354,7.847 130.318,8.069 129.558 C 8.290 128.798,8.623 127.638,8.808 126.980 C 8.993 126.321,9.405 124.871,9.723 123.757 C 10.042 122.643,10.636 120.529,11.044 119.061 C 11.452 117.592,12.129 115.189,12.548 113.720 C 12.967 112.251,13.449 110.470,13.620 109.761 C 13.907 108.568,16.508 99.210,17.254 96.685 C 17.433 96.077,17.792 94.834,18.051 93.923 C 18.311 93.011,18.729 91.608,18.980 90.805 C 19.646 88.680,19.387 88.343,17.186 88.472 L 15.312 88.582 14.618 90.792 C 14.235 92.007,13.787 93.499,13.620 94.107 C 13.454 94.715,12.543 97.781,11.596 100.921 C 10.650 104.061,9.744 107.127,9.583 107.735 C 8.647 111.282,7.276 114.885,6.648 115.454 C 5.252 116.716,2.782 116.650,1.446 115.315 C 0.804 114.673,0.174 114.254,0.047 114.385 C -0.513 114.960,2.700 117.127,4.113 117.127 C 4.889 117.127,5.525 116.961,5.525 116.759 C 5.525 116.556,5.762 116.390,6.052 116.390 C 7.212 116.390,8.651 113.250,10.356 106.998 C 10.577 106.188,10.907 105.144,11.088 104.679 C 11.270 104.213,11.418 103.507,11.418 103.108 C 11.418 102.710,11.569 102.096,11.754 101.745 C 11.938 101.393,12.525 99.613,13.058 97.790 C 13.591 95.967,14.185 94.187,14.380 93.836 C 14.574 93.484,14.733 92.789,14.733 92.292 C 14.733 91.795,14.899 91.285,15.101 91.160 C 15.304 91.035,15.470 90.528,15.470 90.034 C 15.470 89.212,15.614 89.134,17.152 89.134 C 18.730 89.134,18.818 89.186,18.568 89.963 C 18.422 90.419,18.172 91.289,18.012 91.897 C 17.852 92.505,17.531 93.665,17.298 94.475 C 17.065 95.285,16.789 96.489,16.684 97.149 C 16.579 97.809,16.346 98.440,16.166 98.552 C 15.985 98.663,15.838 99.151,15.838 99.636 C 15.838 100.121,15.689 100.899,15.508 101.364 C 15.326 101.829,15.002 102.873,14.786 103.683 C 14.570 104.494,13.973 106.516,13.458 108.178 C 12.944 109.840,12.523 111.530,12.523 111.932 C 12.523 112.334,12.376 112.755,12.195 112.866 C 12.015 112.978,11.762 113.692,11.632 114.453 C 11.064 117.794,10.950 118.250,10.641 118.441 C 10.461 118.553,10.313 118.973,10.313 119.376 C 10.313 119.778,9.892 121.467,9.378 123.129 C 8.863 124.791,8.264 126.814,8.046 127.624 C 7.828 128.435,7.490 129.536,7.295 130.071 C 7.101 130.606,6.996 131.518,7.062 132.097 L 7.182 133.149 13.013 133.251 L 18.843 133.352 18.763 150.930 C 18.682 168.899,18.743 169.792,20.123 170.902 C 22.633 172.921,24.791 172.939,26.872 170.959 L 28.361 169.543 28.361 151.438 L 28.361 133.333 30.203 133.333 L 32.044 133.333 32.044 150.712 C 32.044 167.293,32.078 168.160,32.775 169.589 C 34.469 173.064,39.281 173.314,41.282 170.031 C 41.950 168.937,41.986 167.952,41.988 151.114 L 41.989 133.352 47.790 133.251 L 53.591 133.149 53.712 132.091 C 53.779 131.510,53.654 130.855,53.436 130.637 C 53.217 130.418,53.039 129.785,53.039 129.230 C 53.039 128.675,52.891 128.129,52.711 128.018 C 52.531 127.906,52.298 127.275,52.193 126.615 C 52.004 125.426,51.822 124.737,50.661 120.810 C 50.094 118.893,49.816 117.940,48.941 114.917 C 48.735 114.208,48.484 113.214,48.381 112.707 C 48.279 112.201,48.054 111.455,47.882 111.050 C 47.710 110.645,47.485 109.899,47.383 109.392 C 47.201 108.494,47.084 108.073,45.840 103.867 C 45.510 102.753,45.080 101.262,44.883 100.552 C 44.687 99.843,44.358 98.683,44.153 97.974 C 43.947 97.265,43.695 96.271,43.593 95.764 C 43.491 95.258,43.266 94.512,43.094 94.107 C 42.922 93.702,42.702 92.956,42.605 92.449 C 42.508 91.943,42.258 90.990,42.050 90.331 L 41.672 89.134 43.488 89.134 C 45.044 89.134,45.304 89.237,45.304 89.854 C 45.304 90.249,45.461 90.954,45.653 91.419 C 45.846 91.884,46.440 93.757,46.975 95.580 C 47.510 97.403,48.099 99.183,48.283 99.535 C 48.468 99.886,48.619 100.500,48.619 100.898 C 48.619 101.297,48.767 102.004,48.949 102.469 C 49.130 102.934,49.485 104.061,49.738 104.972 C 50.606 108.109,52.009 112.524,52.339 113.163 C 52.521 113.514,52.670 114.041,52.670 114.333 C 52.670 115.282,55.303 117.127,56.657 117.127 C 59.736 117.127,62.027 113.413,60.792 110.422 C 60.600 109.957,60.005 108.085,59.470 106.262 C 58.936 104.438,58.347 102.659,58.162 102.307 C 57.978 101.955,57.827 101.331,57.827 100.921 C 57.827 100.510,57.677 99.886,57.494 99.535 C 57.312 99.183,56.982 98.232,56.761 97.422 C 55.870 94.144,54.455 89.649,54.125 89.047 C 53.933 88.696,53.775 88.001,53.775 87.504 C 53.775 87.006,53.610 86.497,53.407 86.372 C 53.204 86.247,53.039 85.748,53.039 85.264 C 53.039 82.458,47.188 75.875,44.695 75.875 C 44.422 75.875,44.199 75.726,44.199 75.545 C 44.199 74.695,19.645 73.948,18.416 74.761 M100.000 74.881 C 96.913 75.596,95.159 76.503,93.383 78.302 C 91.239 80.474,90.239 82.037,90.239 83.215 C 90.239 83.610,90.074 84.037,89.871 84.162 C 89.634 84.309,89.503 90.607,89.503 101.851 L 89.503 119.312 90.804 120.614 C 92.907 122.717,95.598 122.381,97.298 119.803 C 97.920 118.860,97.970 117.686,97.972 103.959 L 97.974 89.134 99.816 89.134 L 101.657 89.134 101.657 128.521 C 101.657 151.917,101.796 168.254,102.000 168.761 C 103.571 172.675,108.461 173.695,111.428 170.728 L 113.076 169.080 113.076 145.478 L 113.076 121.877 115.009 121.988 L 116.943 122.099 117.127 145.488 L 117.311 168.877 118.149 170.051 C 120.575 173.452,128.177 172.696,128.177 169.054 C 128.177 168.676,128.343 168.265,128.545 168.140 C 128.787 167.991,128.913 154.385,128.913 128.523 L 128.913 89.134 130.755 89.134 L 132.597 89.134 132.597 104.152 L 132.597 119.169 133.728 120.542 C 135.609 122.824,139.147 122.338,140.507 119.612 C 141.223 118.176,141.353 86.955,140.651 84.741 C 139.428 80.880,136.878 77.523,134.232 76.292 C 133.636 76.015,132.826 75.620,132.430 75.414 C 131.211 74.778,102.484 74.306,100.000 74.881 M187.845 74.770 C 187.541 74.966,186.837 75.129,186.280 75.132 C 185.723 75.136,185.267 75.304,185.267 75.506 C 185.267 75.709,184.936 75.875,184.530 75.875 C 184.125 75.875,183.794 76.041,183.794 76.243 C 183.794 76.446,183.562 76.611,183.278 76.611 C 182.668 76.611,179.369 80.141,178.779 81.426 C 177.811 83.532,176.570 87.242,175.339 91.713 C 175.088 92.624,174.733 93.658,174.550 94.010 C 174.367 94.361,174.217 95.056,174.217 95.553 C 174.217 96.051,174.052 96.560,173.849 96.685 C 173.646 96.810,173.481 97.320,173.481 97.817 C 173.481 98.314,173.322 99.009,173.127 99.360 C 172.933 99.712,172.338 101.492,171.806 103.315 C 171.273 105.138,170.686 106.918,170.501 107.269 C 170.317 107.621,170.166 108.316,170.166 108.813 C 170.166 109.310,170.000 109.820,169.797 109.945 C 169.198 110.315,169.360 114.101,170.018 115.106 C 171.799 117.824,175.913 117.617,177.431 114.733 C 178.525 112.653,178.637 112.347,178.637 111.445 C 178.637 110.948,178.803 110.438,179.006 110.313 C 179.208 110.188,179.374 109.679,179.374 109.181 C 179.374 108.684,179.533 107.989,179.727 107.638 C 179.921 107.286,180.517 105.506,181.052 103.683 C 181.586 101.860,182.173 99.988,182.356 99.522 C 182.539 99.057,182.689 98.279,182.689 97.794 C 182.689 97.310,182.855 96.810,183.057 96.685 C 183.260 96.560,183.425 96.051,183.425 95.553 C 183.425 95.056,183.577 94.361,183.763 94.010 C 183.949 93.658,184.379 92.417,184.718 91.252 L 185.336 89.134 186.959 89.134 C 188.532 89.134,189.196 89.816,188.214 90.424 C 188.011 90.549,187.845 91.129,187.845 91.713 C 187.845 92.297,187.680 92.877,187.477 93.002 C 187.274 93.127,187.109 93.559,187.109 93.961 C 187.109 94.364,186.688 96.053,186.173 97.715 C 185.659 99.377,185.062 101.400,184.846 102.210 C 184.630 103.020,184.305 104.064,184.124 104.529 C 183.942 104.995,183.794 105.772,183.794 106.257 C 183.794 106.742,183.646 107.230,183.466 107.341 C 183.286 107.453,183.053 108.084,182.948 108.744 C 182.759 109.933,182.577 110.622,181.416 114.549 C 180.172 118.754,180.055 119.176,179.873 120.074 C 179.771 120.580,179.546 121.326,179.374 121.731 C 179.044 122.508,178.715 123.887,178.386 125.878 C 178.277 126.538,178.040 127.170,177.860 127.281 C 177.680 127.393,177.532 127.841,177.532 128.278 C 177.532 128.715,177.262 129.781,176.931 130.647 C 175.955 133.203,176.244 133.333,182.918 133.333 L 188.582 133.333 188.594 151.473 C 188.606 171.031,188.505 170.045,190.665 171.560 C 192.718 173.001,195.846 172.382,197.293 170.249 C 197.929 169.312,197.981 168.051,198.080 151.289 L 198.185 133.333 199.997 133.333 L 201.809 133.333 201.917 151.289 C 202.019 168.048,202.071 169.312,202.707 170.249 C 204.154 172.382,207.282 173.001,209.335 171.560 C 211.495 170.045,211.394 171.031,211.406 151.473 L 211.418 133.333 216.913 133.333 C 222.756 133.333,223.573 133.210,223.573 132.330 C 223.573 131.715,222.543 128.355,222.048 127.353 C 221.874 127.001,221.731 126.307,221.731 125.809 C 221.731 125.312,221.565 124.803,221.363 124.678 C 221.160 124.553,220.994 123.972,220.994 123.389 C 220.994 122.805,220.829 122.225,220.626 122.099 C 220.424 121.974,220.258 121.311,220.258 120.626 C 220.258 119.941,220.110 119.289,219.930 119.178 C 219.750 119.067,219.523 118.435,219.426 117.775 C 219.214 116.336,217.748 111.310,217.277 110.410 C 217.093 110.058,216.943 109.364,216.943 108.867 C 216.943 108.369,216.777 107.860,216.575 107.735 C 216.372 107.610,216.206 107.029,216.206 106.446 C 216.206 105.862,216.059 105.293,215.879 105.182 C 215.698 105.070,215.462 104.439,215.353 103.779 C 214.935 101.248,212.377 92.094,211.750 90.889 C 211.007 89.459,211.320 89.088,213.168 89.206 C 214.719 89.306,214.931 89.423,215.040 90.239 C 215.108 90.746,215.315 91.318,215.501 91.510 C 215.686 91.703,215.838 92.314,215.838 92.870 C 215.838 93.425,216.004 93.982,216.206 94.107 C 216.409 94.232,216.575 94.741,216.575 95.239 C 216.575 95.736,216.726 96.430,216.910 96.782 C 217.095 97.134,217.689 98.913,218.230 100.737 C 218.772 102.560,219.387 104.632,219.597 105.341 C 219.808 106.050,220.125 106.918,220.303 107.269 C 220.481 107.621,220.626 108.328,220.626 108.840 C 220.626 109.352,220.776 110.058,220.959 110.410 C 221.141 110.762,221.505 111.796,221.766 112.707 C 222.458 115.120,224.624 117.127,226.535 117.127 C 227.337 117.127,227.993 116.961,227.993 116.759 C 227.993 116.556,228.230 116.390,228.520 116.390 C 230.019 116.390,231.493 110.742,230.203 109.945 C 230.000 109.820,229.834 109.239,229.834 108.656 C 229.834 108.072,229.669 107.492,229.466 107.366 C 229.263 107.241,229.098 106.810,229.098 106.409 C 229.098 105.672,227.987 101.830,227.086 99.448 C 226.818 98.738,226.399 97.413,226.155 96.501 C 225.911 95.589,225.561 94.556,225.378 94.204 C 225.196 93.852,225.046 93.228,225.046 92.818 C 225.046 92.407,224.896 91.783,224.714 91.431 C 224.531 91.080,224.173 90.046,223.919 89.134 C 221.334 79.870,218.363 76.495,211.321 74.819 C 209.123 74.296,188.645 74.253,187.845 74.770 M270.534 74.794 C 270.129 74.955,269.357 75.098,268.819 75.112 C 265.569 75.198,261.275 79.215,259.634 83.703 C 258.463 86.908,258.561 118.142,259.747 119.833 C 261.240 121.961,263.424 122.565,265.486 121.420 C 267.362 120.379,267.403 120.005,267.403 104.009 L 267.403 89.134 269.245 89.134 L 271.087 89.134 271.087 128.339 C 271.087 154.078,271.213 167.622,271.455 167.772 C 271.657 167.897,271.823 168.353,271.823 168.785 C 271.823 169.230,272.476 170.179,273.327 170.973 C 276.067 173.528,280.121 172.862,282.202 169.515 L 283.057 168.140 283.162 145.028 L 283.267 121.915 285.096 121.915 L 286.924 121.915 286.924 145.404 L 286.924 168.893 288.056 170.266 C 288.679 171.021,289.425 171.639,289.714 171.639 C 290.003 171.639,290.239 171.805,290.239 172.007 C 290.239 172.874,294.724 172.414,296.037 171.412 C 298.875 169.247,298.711 171.909,298.711 128.146 L 298.711 89.134 300.368 89.134 L 302.026 89.134 302.026 103.702 C 302.026 119.389,302.061 119.699,303.999 121.263 C 305.729 122.658,308.964 121.883,310.075 119.806 C 311.229 117.649,310.501 82.136,309.303 82.136 C 309.149 82.136,309.024 81.889,309.024 81.587 C 309.024 81.018,307.915 79.532,306.630 78.379 C 304.636 76.590,303.633 75.876,303.112 75.875 C 302.798 75.875,302.356 75.689,302.129 75.462 C 301.697 75.030,297.926 74.884,280.847 74.639 C 275.580 74.563,270.939 74.633,270.534 74.794 M357.643 74.764 C 357.339 74.964,356.634 75.129,356.077 75.132 C 355.520 75.136,355.064 75.304,355.064 75.506 C 355.064 75.709,354.800 75.875,354.477 75.875 C 352.186 75.875,346.961 82.490,346.961 85.390 C 346.961 85.805,346.796 86.247,346.593 86.372 C 346.390 86.497,346.225 87.006,346.225 87.504 C 346.225 88.001,346.074 88.696,345.889 89.047 C 345.705 89.399,345.111 91.179,344.569 93.002 C 344.028 94.825,343.412 96.897,343.202 97.606 C 342.992 98.315,342.674 99.183,342.496 99.535 C 342.319 99.886,342.173 100.581,342.173 101.078 C 342.173 101.575,342.007 102.085,341.805 102.210 C 341.602 102.335,341.436 102.844,341.436 103.342 C 341.436 103.839,341.285 104.534,341.101 104.885 C 337.862 111.058,338.924 117.127,343.243 117.127 C 346.067 117.127,347.449 115.019,349.520 107.551 C 349.773 106.639,350.129 105.605,350.312 105.254 C 350.495 104.902,350.645 104.207,350.645 103.710 C 350.645 103.213,350.810 102.703,351.013 102.578 C 351.215 102.453,351.381 101.944,351.381 101.447 C 351.381 100.949,351.535 100.255,351.723 99.903 C 351.911 99.551,352.502 97.772,353.036 95.948 C 353.571 94.125,354.163 92.253,354.352 91.787 C 354.541 91.322,354.696 90.535,354.696 90.038 C 354.696 89.199,354.829 89.134,356.535 89.134 L 358.373 89.134 357.877 90.516 C 356.910 93.202,356.538 94.536,356.538 95.308 C 356.538 95.738,356.372 96.192,356.169 96.317 C 355.967 96.442,355.801 97.105,355.801 97.790 C 355.801 98.475,355.635 99.138,355.433 99.263 C 355.230 99.389,355.064 99.969,355.064 100.552 C 355.064 101.136,354.899 101.716,354.696 101.842 C 354.494 101.967,354.328 102.381,354.328 102.761 C 354.328 103.142,353.905 104.831,353.388 106.515 C 352.871 108.199,352.274 110.239,352.060 111.050 C 351.847 111.860,351.524 112.904,351.343 113.369 C 351.161 113.834,351.013 114.612,351.013 115.097 C 351.013 115.582,350.847 116.081,350.645 116.206 C 350.442 116.331,350.276 116.763,350.276 117.166 C 350.276 117.568,349.855 119.257,349.341 120.919 C 348.827 122.581,348.229 124.604,348.013 125.414 C 347.798 126.225,347.473 127.268,347.291 127.734 C 347.110 128.199,346.961 128.953,346.961 129.410 C 346.961 129.866,346.783 130.418,346.564 130.637 C 346.346 130.855,346.221 131.510,346.288 132.091 L 346.409 133.149 352.210 133.251 L 358.011 133.352 358.011 150.424 C 358.011 171.672,358.168 172.376,362.922 172.376 C 367.783 172.376,367.938 171.708,367.948 150.737 L 367.956 133.333 369.797 133.333 L 371.639 133.333 371.639 151.438 L 371.639 169.543 373.128 170.959 C 374.441 172.208,374.831 172.376,376.427 172.376 C 378.024 172.376,378.414 172.208,379.727 170.959 L 381.215 169.543 381.221 151.899 C 381.224 142.194,381.355 134.052,381.513 133.804 C 381.712 133.490,383.467 133.323,387.308 133.252 L 392.818 133.149 392.937 131.905 C 393.002 131.221,392.878 130.484,392.660 130.266 C 392.443 130.049,392.265 129.498,392.265 129.041 C 392.265 128.585,392.117 127.831,391.935 127.365 C 391.754 126.900,391.429 125.856,391.213 125.046 C 390.997 124.236,390.400 122.213,389.886 120.551 C 389.371 118.889,388.950 117.200,388.950 116.797 C 388.950 116.395,388.785 115.963,388.582 115.838 C 388.379 115.713,388.214 115.133,388.214 114.549 C 388.214 113.965,388.048 113.385,387.845 113.260 C 387.643 113.134,387.477 112.635,387.477 112.150 C 387.477 111.665,387.328 110.888,387.147 110.422 C 386.966 109.957,386.641 108.913,386.425 108.103 C 386.209 107.293,385.612 105.270,385.097 103.608 C 384.583 101.946,384.162 100.257,384.162 99.854 C 384.162 99.452,383.996 99.020,383.794 98.895 C 383.591 98.770,383.425 98.190,383.425 97.606 C 383.425 97.022,383.278 96.453,383.098 96.342 C 382.918 96.231,382.684 95.599,382.580 94.939 C 382.475 94.279,382.196 93.076,381.961 92.265 C 380.999 88.956,380.954 89.134,382.750 89.134 C 384.367 89.134,384.370 89.137,384.866 90.884 C 385.807 94.198,387.194 98.528,387.520 99.166 C 387.699 99.518,387.845 100.213,387.845 100.710 C 387.845 101.207,388.011 101.716,388.214 101.842 C 388.416 101.967,388.582 102.547,388.582 103.131 C 388.582 103.715,388.748 104.295,388.950 104.420 C 389.153 104.545,389.319 105.054,389.319 105.552 C 389.319 106.049,389.469 106.743,389.653 107.095 C 389.838 107.447,390.450 109.227,391.015 111.050 C 392.114 114.598,393.098 116.390,393.948 116.390 C 394.238 116.390,394.475 116.556,394.475 116.759 C 394.475 117.976,399.258 116.422,399.792 115.032 C 400.095 114.241,399.662 113.860,399.246 114.552 C 398.291 116.140,398.167 116.206,396.111 116.206 C 393.069 116.206,392.817 115.814,390.428 107.366 C 390.257 106.759,389.757 105.101,389.319 103.683 C 388.880 102.265,388.383 100.608,388.214 100.000 C 387.535 97.551,385.313 90.359,384.943 89.411 C 384.587 88.497,384.372 88.398,382.737 88.398 C 380.574 88.398,380.281 88.847,380.986 91.078 C 381.651 93.181,382.045 94.567,383.995 101.657 C 384.914 105.000,385.806 108.149,385.977 108.656 C 386.147 109.162,386.472 110.239,386.699 111.050 C 386.926 111.860,387.790 114.926,388.620 117.864 C 389.449 120.801,390.286 123.785,390.480 124.494 C 390.675 125.203,390.990 126.321,391.181 126.980 C 392.180 130.420,392.342 131.022,392.526 131.983 L 392.726 133.027 388.112 132.764 C 385.574 132.619,382.902 132.613,382.173 132.750 L 380.847 132.998 380.847 151.001 L 380.847 169.004 379.952 170.068 C 378.096 172.274,374.612 172.248,372.944 170.016 C 372.216 169.041,372.185 168.413,372.007 150.894 L 371.823 132.781 370.385 132.663 C 369.594 132.598,368.558 132.643,368.083 132.762 L 367.219 132.979 367.219 151.154 L 367.219 169.329 366.245 170.303 C 363.867 172.681,360.136 172.001,358.823 168.951 C 358.498 168.196,358.379 163.257,358.379 150.443 L 358.379 132.965 352.947 132.959 C 346.806 132.953,346.451 132.854,346.943 131.289 C 347.131 130.691,347.483 129.457,347.725 128.545 C 347.968 127.634,348.308 126.390,348.482 125.783 C 348.656 125.175,349.381 122.606,350.092 120.074 C 350.804 117.541,351.528 114.972,351.702 114.365 C 351.876 113.757,352.203 112.597,352.428 111.786 C 353.338 108.513,355.444 101.036,355.747 100.000 C 355.924 99.392,356.255 98.232,356.480 97.422 C 356.706 96.611,357.214 94.788,357.609 93.370 C 358.883 88.802,358.814 88.398,356.767 88.398 C 355.880 88.398,355.003 88.605,354.818 88.858 C 354.382 89.455,353.778 91.361,350.471 102.578 C 349.933 104.401,349.355 106.308,349.186 106.814 C 348.915 107.629,347.565 112.199,347.096 113.888 C 346.484 116.096,342.394 117.135,340.754 115.499 C 338.928 113.676,339.079 112.502,342.541 101.657 C 342.897 100.543,343.553 98.389,344.000 96.869 C 344.446 95.350,345.378 92.284,346.070 90.055 C 346.762 87.827,347.506 85.424,347.723 84.715 C 348.872 80.954,351.458 77.756,354.619 76.185 C 356.338 75.330,356.467 75.322,369.245 75.322 L 382.136 75.322 384.662 76.577 C 387.596 78.034,390.729 81.462,391.512 84.070 C 391.771 84.931,392.116 86.050,392.279 86.556 C 392.442 87.063,393.022 88.969,393.567 90.792 C 394.111 92.615,394.850 95.018,395.208 96.133 C 395.566 97.247,396.223 99.401,396.669 100.921 C 397.502 103.763,399.158 109.179,399.472 110.090 C 399.569 110.372,399.750 110.501,399.874 110.377 C 400.073 110.179,398.961 106.060,398.166 104.052 C 398.005 103.646,397.673 102.569,397.428 101.657 C 397.182 100.746,396.832 99.712,396.649 99.360 C 396.466 99.009,396.317 98.385,396.317 97.974 C 396.317 97.564,396.172 96.940,395.994 96.588 C 395.692 95.989,394.075 90.907,393.272 88.029 C 393.073 87.320,392.766 86.453,392.588 86.101 C 392.411 85.749,392.265 85.143,392.265 84.754 C 392.265 81.489,386.193 75.903,381.584 74.928 C 379.530 74.493,358.276 74.348,357.643 74.764 M132.228 75.881 C 135.369 77.177,137.290 78.931,139.282 82.320 L 140.147 83.794 140.147 101.718 L 140.147 119.643 139.251 120.421 C 137.418 122.011,135.318 121.828,133.923 119.955 C 133.174 118.948,133.143 118.438,132.965 103.749 L 132.781 88.582 130.907 88.473 C 127.969 88.301,128.197 84.997,128.090 129.192 L 127.993 169.002 127.072 169.987 C 125.048 172.152,122.802 172.553,120.364 171.183 C 117.559 169.606,117.701 170.918,117.495 144.751 L 117.311 121.363 115.320 121.249 C 113.977 121.173,113.230 121.293,113.024 121.618 C 112.856 121.883,112.716 132.526,112.713 145.269 L 112.707 168.439 111.767 169.671 C 109.248 172.974,105.229 172.788,102.922 169.261 C 102.232 168.207,102.204 166.929,102.026 128.377 L 101.842 88.582 99.724 88.471 L 97.606 88.361 97.604 102.652 C 97.602 117.571,97.449 119.300,96.024 120.536 C 94.287 122.043,91.813 121.596,90.566 119.551 C 89.619 117.998,89.499 87.255,90.428 84.193 C 91.795 79.688,94.970 76.682,99.632 75.480 C 101.762 74.930,130.790 75.288,132.228 75.881 M212.981 75.777 C 217.835 77.218,221.070 80.998,222.838 87.293 C 223.094 88.204,223.591 89.862,223.944 90.976 C 224.498 92.726,225.804 97.025,226.910 100.737 C 227.092 101.344,227.553 102.836,227.935 104.052 C 228.318 105.267,228.836 107.007,229.087 107.919 C 229.337 108.831,229.691 109.957,229.873 110.422 C 230.698 112.540,229.814 115.400,228.135 116.038 C 225.411 117.074,223.268 115.755,222.264 112.426 C 221.914 111.264,221.304 109.236,220.910 107.919 C 220.516 106.602,219.792 104.199,219.302 102.578 C 218.811 100.958,218.226 98.969,218.002 98.158 C 217.778 97.348,217.459 96.271,217.294 95.764 C 217.128 95.258,216.623 93.600,216.170 92.081 C 215.113 88.532,214.992 88.398,212.846 88.398 C 210.577 88.398,210.557 88.654,212.347 94.805 C 213.060 97.257,213.825 99.926,214.047 100.737 C 214.269 101.547,214.577 102.624,214.733 103.131 C 214.889 103.637,215.197 104.715,215.419 105.525 C 215.641 106.335,216.409 109.070,217.127 111.602 C 217.845 114.134,218.613 116.869,218.835 117.680 C 219.057 118.490,219.366 119.567,219.521 120.074 C 219.677 120.580,219.989 121.657,220.215 122.468 C 220.441 123.278,221.140 125.726,221.768 127.907 C 223.309 133.261,223.488 133.044,217.778 132.756 C 214.721 132.602,212.721 132.658,212.063 132.917 L 211.050 133.315 211.049 151.280 L 211.049 169.245 210.213 170.217 C 208.468 172.246,205.136 172.246,203.409 170.217 L 202.582 169.245 202.580 151.503 C 202.578 131.150,202.763 132.597,200.166 132.597 C 197.459 132.597,197.606 131.532,197.606 151.197 L 197.606 168.877 196.785 170.027 C 195.275 172.145,191.975 172.252,189.973 170.248 L 189.134 169.409 188.950 151.279 L 188.766 133.149 183.134 133.047 C 176.474 132.927,176.762 133.188,178.090 128.493 C 178.627 126.597,179.206 124.549,179.378 123.941 C 179.550 123.333,180.046 121.510,180.479 119.890 C 181.305 116.799,181.523 116.012,182.467 112.707 C 183.104 110.479,184.396 105.884,184.953 103.867 C 185.148 103.158,185.451 102.081,185.625 101.473 C 185.798 100.866,186.175 99.540,186.462 98.527 C 186.748 97.514,187.446 95.076,188.012 93.110 C 189.277 88.719,189.175 88.319,186.839 88.470 C 184.821 88.599,184.752 88.743,181.952 98.711 C 181.456 100.476,180.222 104.595,179.193 107.919 C 178.723 109.438,178.120 111.469,177.855 112.431 C 177.080 115.237,176.013 116.206,173.701 116.206 C 170.564 116.206,168.916 113.541,170.126 110.422 C 170.306 109.957,170.823 108.333,171.275 106.814 C 171.727 105.295,172.234 103.637,172.403 103.131 C 172.571 102.624,173.141 100.718,173.669 98.895 C 174.196 97.072,174.765 95.249,174.933 94.843 C 175.101 94.438,175.442 93.361,175.691 92.449 C 175.941 91.538,176.282 90.378,176.451 89.871 C 176.619 89.365,177.116 87.707,177.554 86.188 C 179.261 80.273,182.150 77.004,187.109 75.378 C 188.815 74.818,210.899 75.159,212.981 75.777 M302.762 76.297 C 305.360 77.545,307.624 79.804,308.920 82.443 L 309.945 84.530 309.945 101.964 L 309.945 119.397 308.742 120.472 C 306.841 122.171,304.389 121.733,303.333 119.507 C 302.848 118.486,302.762 116.144,302.762 103.934 C 302.762 96.030,302.662 89.301,302.539 88.980 C 302.349 88.484,298.655 88.061,298.257 88.490 C 298.210 88.541,298.086 106.565,297.981 128.545 L 297.790 168.508 296.952 169.683 C 294.512 173.104,289.915 172.658,287.753 168.790 C 287.399 168.155,287.292 162.686,287.287 145.033 C 287.284 132.419,287.144 121.883,286.976 121.618 C 286.770 121.293,286.023 121.173,284.680 121.249 L 282.689 121.363 282.505 145.001 C 282.324 168.224,282.307 168.657,281.554 169.665 C 279.267 172.727,275.023 172.736,272.845 169.683 L 272.007 168.508 271.823 128.545 L 271.639 88.582 269.429 88.582 L 267.219 88.582 267.123 103.753 L 267.027 118.925 265.790 120.236 C 263.946 122.191,261.465 121.894,260.229 119.570 C 259.677 118.531,259.627 116.695,259.734 101.105 L 259.853 83.794 260.932 81.833 C 262.602 78.798,265.808 76.289,269.061 75.470 C 269.669 75.317,277.044 75.221,285.451 75.258 L 300.737 75.324 302.762 76.297 M26.335 196.844 C 16.216 201.532,20.355 217.388,31.358 216.085 C 41.779 214.851,43.956 201.406,34.475 196.832 C 32.029 195.652,28.897 195.657,26.335 196.844 M111.971 196.296 C 111.667 196.463,110.961 196.813,110.403 197.074 C 103.689 200.212,103.538 210.930,110.157 214.645 C 120.988 220.724,130.944 206.345,121.600 198.120 C 120.703 197.331,119.672 196.685,119.307 196.685 C 118.942 196.685,118.541 196.519,118.416 196.317 C 118.145 195.878,112.762 195.860,111.971 196.296 M33.005 196.897 C 43.754 200.022,41.541 215.470,30.344 215.470 C 22.062 215.470,17.856 205.805,23.445 199.618 C 26.004 196.786,29.348 195.834,33.005 196.897 M118.742 197.069 C 123.929 199.010,126.366 205.389,123.801 210.311 C 120.757 216.150,112.500 217.246,108.204 212.380 C 101.513 204.802,109.273 193.526,118.742 197.069 M197.359 196.816 C 193.251 198.098,190.193 202.458,190.493 206.606 C 191.379 218.855,209.576 218.330,209.576 206.056 C 209.576 199.582,203.419 194.925,197.359 196.816 M281.952 196.769 C 275.713 198.993,273.266 206.456,277.115 211.519 C 282.856 219.069,294.449 215.323,294.417 205.929 C 294.394 199.334,287.980 194.620,281.952 196.769 M366.539 197.039 C 359.823 199.326,357.946 208.314,363.195 213.056 C 367.247 216.717,374.196 216.230,377.269 212.068 C 383.064 204.223,375.706 193.918,366.539 197.039 M102.947 217.394 C 102.136 217.591,101.185 217.901,100.834 218.084 C 100.482 218.267,99.943 218.416,99.637 218.416 C 99.330 218.416,99.079 218.582,99.079 218.785 C 99.079 218.987,98.865 219.153,98.603 219.153 C 98.060 219.153,95.499 221.742,94.414 223.389 C 93.594 224.634,92.876 226.541,91.712 230.571 C 91.273 232.090,90.762 233.621,90.577 233.973 C 90.391 234.325,90.239 234.948,90.239 235.359 C 90.239 235.770,90.088 236.394,89.904 236.745 C 89.719 237.097,89.125 238.877,88.584 240.700 C 88.042 242.523,87.427 244.595,87.217 245.304 C 87.006 246.013,86.689 246.881,86.511 247.233 C 86.333 247.584,86.188 248.208,86.188 248.619 C 86.188 249.029,86.042 249.653,85.865 250.005 C 82.892 255.890,86.039 261.524,90.935 259.081 C 92.189 258.456,93.923 255.456,93.923 253.912 C 93.923 253.456,94.088 252.980,94.291 252.855 C 94.494 252.729,94.659 252.220,94.659 251.723 C 94.659 251.226,94.809 250.531,94.992 250.179 C 95.175 249.827,95.528 248.794,95.778 247.882 C 96.028 246.971,96.599 245.064,97.048 243.646 C 97.496 242.228,98.073 240.322,98.330 239.411 C 98.586 238.499,98.924 237.339,99.079 236.832 C 99.235 236.326,99.567 235.166,99.817 234.254 C 100.067 233.343,100.329 232.390,100.400 232.136 C 100.593 231.450,103.867 231.517,103.867 232.207 C 103.867 232.499,103.702 232.840,103.499 232.965 C 103.297 233.090,103.131 233.647,103.131 234.202 C 103.131 234.757,102.975 235.369,102.784 235.562 C 102.421 235.927,101.726 238.370,101.399 240.427 C 101.294 241.087,101.060 241.719,100.880 241.830 C 100.700 241.941,100.552 242.510,100.552 243.094 C 100.552 243.678,100.387 244.258,100.184 244.383 C 99.982 244.508,99.816 245.171,99.816 245.856 C 99.816 246.541,99.650 247.204,99.448 247.330 C 99.245 247.455,99.079 247.964,99.079 248.461 C 99.079 248.959,98.927 249.653,98.741 250.005 C 98.556 250.357,97.958 252.302,97.414 254.328 C 96.870 256.354,96.276 258.392,96.094 258.857 C 95.913 259.322,95.764 260.100,95.764 260.585 C 95.764 261.070,95.599 261.569,95.396 261.694 C 95.193 261.819,95.028 262.400,95.028 262.983 C 95.028 263.567,94.880 264.136,94.700 264.247 C 94.520 264.359,94.289 264.990,94.187 265.650 C 94.084 266.311,93.547 268.343,92.992 270.166 C 92.437 271.989,91.964 273.978,91.940 274.586 L 91.897 275.691 97.882 275.792 L 103.867 275.893 103.868 294.024 L 103.868 312.155 104.701 313.076 C 106.943 315.556,110.277 315.556,112.524 313.075 C 113.235 312.289,113.263 311.656,113.371 294.069 L 113.482 275.875 115.291 275.875 L 117.101 275.875 117.206 294.089 L 117.311 312.303 118.739 313.610 C 120.362 315.096,122.382 315.363,124.400 314.356 C 126.761 313.178,126.687 313.807,126.792 294.033 L 126.888 276.059 132.387 275.957 C 138.605 275.841,138.933 275.721,138.418 273.746 C 138.222 272.992,137.973 271.918,137.865 271.358 C 137.757 270.799,137.522 270.250,137.342 270.140 C 137.163 270.029,137.017 269.378,137.017 268.692 C 137.017 268.007,136.851 267.344,136.648 267.219 C 136.446 267.094,136.280 266.514,136.280 265.930 C 136.280 265.346,136.114 264.766,135.912 264.641 C 135.709 264.516,135.543 264.085,135.543 263.683 C 135.543 263.282,135.226 261.924,134.837 260.666 C 134.449 259.409,133.855 257.385,133.517 256.169 C 133.180 254.954,132.752 253.672,132.566 253.320 C 132.380 252.968,132.228 252.261,132.228 251.750 C 132.228 251.238,132.079 250.531,131.896 250.179 C 131.713 249.827,131.394 248.877,131.187 248.066 C 130.980 247.256,130.383 245.174,129.862 243.440 C 129.340 241.707,128.913 240.017,128.913 239.687 C 128.913 239.356,128.748 238.983,128.545 238.858 C 128.343 238.733,128.177 238.153,128.177 237.569 C 128.177 236.985,128.029 236.416,127.849 236.305 C 127.669 236.194,127.432 235.562,127.323 234.902 C 127.214 234.242,127.010 233.246,126.871 232.689 C 126.623 231.699,126.654 231.676,128.242 231.676 L 129.866 231.676 130.545 233.794 C 130.919 234.959,131.388 236.492,131.587 237.201 C 131.787 237.910,132.096 238.778,132.274 239.129 C 132.451 239.481,132.597 240.176,132.597 240.673 C 132.597 241.170,132.762 241.680,132.965 241.805 C 133.168 241.930,133.333 242.429,133.333 242.914 C 133.333 243.399,133.483 244.177,133.666 244.642 C 133.848 245.107,134.446 246.980,134.994 248.803 C 135.542 250.626,136.138 252.406,136.319 252.757 C 136.500 253.109,136.648 253.804,136.648 254.301 C 136.648 254.798,136.814 255.308,137.017 255.433 C 137.219 255.558,137.385 255.977,137.385 256.363 C 137.385 256.749,137.971 257.651,138.686 258.367 C 141.639 261.320,145.856 259.275,145.856 254.890 C 145.856 253.693,145.691 252.611,145.488 252.486 C 145.285 252.361,145.120 251.852,145.120 251.354 C 145.120 250.857,144.969 250.163,144.785 249.811 C 144.601 249.459,144.003 247.680,143.456 245.856 C 142.910 244.033,142.315 242.254,142.134 241.902 C 141.953 241.550,141.805 240.855,141.805 240.358 C 141.805 239.861,141.639 239.352,141.436 239.227 C 141.234 239.101,141.068 238.592,141.068 238.095 C 141.068 237.598,140.923 236.903,140.745 236.551 C 140.567 236.199,140.250 235.331,140.039 234.622 C 137.215 225.108,136.843 224.249,134.450 221.723 C 132.768 219.947,130.455 218.416,129.455 218.416 C 129.157 218.416,128.913 218.287,128.913 218.129 C 128.913 217.081,106.810 216.455,102.947 217.394 M14.917 217.550 C 12.817 217.846,10.624 218.965,8.917 220.612 C 7.291 222.180,6.590 223.080,6.031 224.315 C 5.803 224.818,5.389 225.727,5.110 226.335 C 4.442 227.794,4.144 259.082,4.778 261.232 C 6.116 265.767,12.256 265.511,13.019 260.889 C 13.147 260.117,13.253 253.227,13.256 245.580 L 13.260 231.676 14.917 231.676 L 16.575 231.676 16.575 270.722 L 16.575 309.769 17.361 311.441 C 19.853 316.743,27.457 315.959,28.385 310.304 C 28.550 309.296,28.695 298.568,28.707 286.464 L 28.729 264.457 30.571 264.457 L 32.413 264.457 32.413 287.513 C 32.413 313.041,32.331 312.133,34.801 314.017 C 37.196 315.844,41.943 314.886,43.122 312.339 C 43.356 311.832,43.695 311.130,43.874 310.778 C 44.056 310.420,44.199 292.879,44.199 270.907 L 44.199 231.676 46.041 231.676 L 47.882 231.676 47.882 246.961 C 47.882 256.906,48.011 262.247,48.250 262.247 C 48.453 262.247,48.619 262.476,48.619 262.757 C 48.619 265.468,54.631 264.805,55.819 261.964 C 56.739 259.761,56.589 229.705,55.642 226.591 C 54.608 223.191,52.171 220.314,48.803 218.516 L 46.961 217.533 31.492 217.464 C 22.983 217.425,15.525 217.464,14.917 217.550 M44.993 218.025 C 49.180 218.711,52.426 221.057,54.452 224.862 L 55.433 226.703 55.546 243.631 C 55.608 252.941,55.559 260.952,55.439 261.434 C 54.741 264.214,51.319 264.980,49.394 262.786 L 48.250 261.484 48.250 246.794 C 48.250 229.956,48.387 230.939,46.046 230.939 C 43.303 230.939,43.493 227.993,43.481 270.841 C 43.475 292.259,43.364 310.233,43.234 310.784 C 42.478 313.985,38.135 315.592,35.322 313.713 C 32.685 311.952,32.782 312.962,32.781 287.240 C 32.781 261.816,32.964 263.720,30.517 263.720 C 27.786 263.720,27.993 261.751,27.993 287.731 L 27.993 310.980 27.053 312.212 C 24.673 315.332,20.563 315.351,18.353 312.252 L 17.495 311.050 17.311 271.087 L 17.127 231.123 15.136 231.010 C 12.402 230.854,12.535 230.065,12.529 246.525 C 12.525 256.590,12.394 261.443,12.112 261.995 C 10.912 264.340,8.187 264.801,6.423 262.959 L 5.341 261.829 5.341 244.266 L 5.341 226.703 6.446 224.689 C 8.398 221.129,11.482 218.754,15.101 218.024 C 17.044 217.633,42.601 217.633,44.993 218.025 M127.455 218.205 C 129.891 218.841,130.866 219.331,132.896 220.940 C 135.661 223.130,136.538 224.758,138.483 231.308 C 138.934 232.827,139.440 234.484,139.608 234.991 C 139.776 235.497,140.276 237.155,140.720 238.674 C 141.164 240.193,141.898 242.597,142.351 244.015 C 142.805 245.433,143.542 247.836,143.989 249.355 C 144.437 250.875,144.957 252.598,145.145 253.186 C 146.355 256.955,143.540 260.141,140.224 258.756 C 138.419 258.002,137.676 256.320,135.175 247.330 C 135.006 246.722,134.509 245.064,134.070 243.646 C 133.631 242.228,133.136 240.571,132.970 239.963 C 132.257 237.364,130.467 231.735,130.231 231.354 C 129.904 230.825,126.979 230.811,126.454 231.336 C 125.981 231.809,125.987 231.835,128.538 240.700 C 129.179 242.928,129.954 245.663,130.261 246.777 C 131.247 250.360,131.407 250.918,133.150 256.906 C 134.094 260.147,135.005 263.379,135.175 264.088 C 135.345 264.797,136.077 267.439,136.803 269.958 C 137.528 272.477,138.122 274.752,138.122 275.013 C 138.122 275.376,136.757 275.512,132.320 275.589 L 126.519 275.691 126.335 293.738 C 126.133 313.597,126.224 312.884,123.748 314.000 C 122.360 314.626,122.085 314.640,120.720 314.158 C 117.565 313.043,117.704 313.937,117.495 293.436 L 117.311 275.322 115.533 275.209 C 112.517 275.016,112.707 273.766,112.707 293.819 C 112.707 310.898,112.676 311.716,111.993 312.676 C 110.949 314.142,108.778 314.774,106.997 314.131 C 104.344 313.172,104.441 313.890,104.236 293.755 L 104.052 275.691 98.527 275.595 C 95.488 275.542,92.816 275.431,92.588 275.348 C 92.145 275.186,92.148 275.172,94.263 267.587 C 96.055 261.162,96.202 260.642,96.501 259.669 C 96.861 258.495,97.297 256.935,98.918 251.013 C 99.638 248.379,100.387 245.727,100.581 245.120 C 101.925 240.924,104.246 231.866,104.086 231.448 C 103.409 229.685,100.144 231.149,99.467 233.517 C 99.207 234.429,98.866 235.589,98.711 236.096 C 98.555 236.602,98.224 237.762,97.974 238.674 C 97.725 239.586,97.387 240.746,97.224 241.252 C 97.060 241.759,96.484 243.665,95.943 245.488 C 95.402 247.311,94.820 249.217,94.650 249.724 C 94.480 250.230,93.982 251.888,93.542 253.407 C 92.428 257.257,92.115 257.795,90.503 258.617 C 86.638 260.589,84.118 256.906,85.781 251.718 C 86.165 250.520,86.846 248.297,87.293 246.777 C 87.740 245.258,88.245 243.600,88.415 243.094 C 88.677 242.310,89.280 240.345,91.745 232.228 C 94.770 222.271,96.976 219.377,102.578 218.022 C 104.786 217.488,125.286 217.638,127.455 218.205 M183.616 218.283 C 179.101 219.695,176.131 223.014,175.091 227.808 C 174.461 230.711,174.379 259.296,174.995 261.179 C 175.795 263.623,178.048 264.677,180.291 263.655 C 182.239 262.767,182.306 262.209,182.409 246.041 L 182.505 231.123 184.283 231.010 C 187.371 230.813,187.109 227.090,187.109 271.150 C 187.109 314.601,186.949 311.705,189.445 313.609 C 191.708 315.335,195.293 314.612,196.941 312.097 C 197.559 311.154,197.619 309.436,197.790 287.694 L 197.974 264.305 199.448 263.998 C 200.351 263.809,201.241 263.835,201.750 264.065 L 202.578 264.441 202.578 287.847 L 202.578 311.253 204.226 312.901 C 206.229 314.904,208.509 315.189,210.719 313.713 C 213.435 311.899,213.258 314.857,213.259 271.040 C 213.260 227.315,213.029 230.802,215.903 231.009 L 217.495 231.123 217.680 246.041 C 217.807 256.391,217.998 261.256,218.301 261.933 C 219.574 264.775,223.562 264.812,225.003 261.995 C 225.657 260.716,225.559 229.491,224.893 226.989 C 223.965 223.502,221.408 220.512,217.864 218.769 L 216.022 217.864 200.737 217.786 C 187.768 217.720,185.173 217.795,183.616 218.283 M271.087 218.291 C 265.889 220.098,264.251 222.636,260.785 234.254 C 260.331 235.773,259.823 237.431,259.656 237.937 C 259.488 238.444,258.746 240.847,258.008 243.278 C 256.455 248.386,256.243 249.078,255.248 252.271 C 254.142 255.821,254.684 257.587,257.259 258.814 C 260.697 260.454,262.249 258.031,265.564 245.856 C 266.204 243.505,267.817 238.052,268.287 236.648 C 268.559 235.838,268.997 234.429,269.260 233.517 C 269.831 231.539,270.470 230.939,272.004 230.939 C 274.055 230.939,274.132 231.304,272.957 235.451 C 272.771 236.110,271.946 239.052,271.124 241.989 C 270.302 244.926,269.482 247.827,269.303 248.435 C 269.123 249.042,268.792 250.203,268.566 251.013 C 268.340 251.823,267.569 254.558,266.851 257.090 C 266.133 259.622,265.361 262.357,265.136 263.168 C 264.910 263.978,264.582 265.138,264.406 265.746 C 262.557 272.147,261.885 274.851,262.070 275.150 C 262.197 275.355,264.711 275.506,267.978 275.506 L 273.665 275.506 273.665 293.204 C 273.665 312.737,273.626 312.389,275.985 313.827 C 277.404 314.692,278.691 314.741,280.201 313.988 C 282.578 312.802,282.505 313.450,282.505 293.764 C 282.505 273.513,282.265 274.971,285.557 275.210 L 287.109 275.322 287.293 293.554 C 287.492 313.301,287.416 312.595,289.478 313.754 C 291.169 314.704,292.014 314.745,293.672 313.954 C 296.198 312.749,296.133 313.296,296.133 293.405 L 296.133 275.506 302.068 275.506 L 308.003 275.506 307.807 274.494 C 307.699 273.936,307.447 272.901,307.246 272.192 C 306.418 269.269,305.361 265.623,304.791 263.720 C 303.934 260.857,303.498 259.311,303.131 257.827 C 302.956 257.118,302.455 255.295,302.017 253.775 C 301.580 252.256,301.089 250.516,300.925 249.908 C 300.761 249.300,299.782 245.820,298.750 242.173 C 297.717 238.527,296.709 234.963,296.508 234.254 C 295.688 231.357,295.844 230.939,297.745 230.939 C 299.554 230.939,299.893 231.228,300.551 233.333 C 300.804 234.144,301.157 235.094,301.334 235.446 C 301.512 235.798,301.657 236.309,301.657 236.582 C 301.657 236.856,301.966 238.059,302.343 239.258 C 302.720 240.456,303.404 242.680,303.862 244.199 C 304.320 245.718,304.899 247.624,305.149 248.435 C 305.398 249.245,305.790 250.571,306.020 251.381 C 307.636 257.093,308.547 258.613,310.673 259.147 C 312.173 259.523,313.940 258.525,314.734 256.852 C 315.490 255.260,315.307 254.203,313.040 247.053 C 312.446 245.180,311.774 242.983,311.548 242.173 C 311.321 241.363,310.839 239.788,310.476 238.674 C 308.833 233.622,307.182 228.118,307.182 227.689 C 307.182 224.806,301.816 219.516,297.631 218.274 C 294.735 217.413,273.571 217.427,271.087 218.291 M353.862 218.071 C 350.281 218.939,347.161 221.541,345.529 225.021 L 344.567 227.072 344.454 243.462 C 344.316 263.590,344.402 264.088,348.035 264.088 C 351.943 264.088,352.118 263.301,352.118 245.684 L 352.118 230.939 353.867 230.945 C 354.830 230.948,355.821 231.080,356.069 231.238 C 356.421 231.461,356.544 240.346,356.622 271.287 L 356.722 311.050 357.580 312.252 C 359.171 314.484,362.115 315.201,364.598 313.963 C 367.146 312.691,367.015 313.998,367.219 287.877 L 367.403 264.303 368.692 264.021 C 369.401 263.866,370.437 263.831,370.994 263.943 L 372.007 264.147 372.008 287.230 C 372.008 308.471,372.060 310.415,372.653 311.595 C 374.614 315.498,380.262 315.503,382.224 311.602 C 382.828 310.402,382.886 307.571,383.057 270.718 L 383.241 231.123 385.047 231.009 C 387.566 230.849,387.465 230.215,387.471 246.293 C 387.474 254.380,387.629 261.125,387.823 261.635 C 389.152 265.131,393.686 264.858,394.778 261.216 C 395.422 259.065,395.355 230.806,394.698 227.745 C 393.807 223.593,391.499 220.744,387.477 218.828 L 385.451 217.864 370.350 217.799 C 362.044 217.764,354.624 217.886,353.862 218.071 " stroke="none" fill="#394ed4" fill-rule="evenodd"></path></g></svg>