<svg id="svg" version="1.1" xmlns="http://www.w3.org/2000/svg" xmlns:xlink="http://www.w3.org/1999/xlink" width="400" height="400" viewBox="0, 0, 400,400"><g id="svgg"><path id="path0" d="M103.625 25.773 C 83.562 27.891,68.617 43.618,67.237 64.066 C 66.746 71.338,67.067 337.397,67.570 340.125 C 70.907 358.229,84.191 371.318,102.000 374.049 C 105.872 374.643,232.828 374.516,236.232 373.915 C 255.333 370.542,268.965 355.202,270.261 335.625 C 270.682 329.261,270.461 62.973,270.033 60.508 C 266.871 42.303,254.442 29.572,236.394 26.052 C 234.124 25.609,107.692 25.343,103.625 25.773 M235.125 44.941 C 242.756 47.103,248.131 52.229,250.654 59.750 L 251.367 61.875 251.447 73.938 L 251.527 86.000 168.750 86.000 L 85.973 86.000 86.053 73.938 L 86.133 61.875 86.846 59.750 C 89.651 51.385,96.449 45.607,104.765 44.520 C 105.651 44.404,134.894 44.324,169.750 44.342 L 233.125 44.375 235.125 44.941 M147.966 57.389 C 140.126 59.823,139.496 71.136,147.000 74.719 L 148.375 75.375 168.750 75.375 L 189.125 75.375 190.549 74.707 C 197.539 71.431,197.509 61.127,190.500 57.781 L 189.125 57.125 169.125 57.077 C 152.326 57.037,148.939 57.086,147.966 57.389 M251.625 200.000 L 251.625 295.375 168.750 295.375 L 85.875 295.375 85.811 200.250 C 85.776 147.931,85.801 104.984,85.866 104.812 C 85.961 104.562,102.680 104.512,168.805 104.562 L 251.625 104.625 251.625 200.000 M251.496 325.188 C 251.492 333.746,251.410 336.758,251.146 338.006 C 249.351 346.468,242.756 353.004,234.049 354.946 C 231.078 355.608,106.422 355.608,103.451 354.946 C 95.501 353.172,89.618 347.933,86.950 340.250 L 86.125 337.875 86.049 325.938 L 85.973 314.000 168.737 314.000 L 251.500 314.000 251.496 325.188 M166.125 320.041 C 158.613 321.453,153.498 329.399,155.128 337.125 C 157.694 349.293,174.156 352.347,180.995 341.924 C 187.911 331.384,178.608 317.695,166.125 320.041 " stroke="none" fill="#444c54" fill-rule="evenodd"></path><path id="path1" d="M327.250 67.272 C 319.858 68.174,315.072 76.318,318.090 82.859 C 319.208 85.282,320.492 86.490,329.081 93.202 L 337.497 99.779 346.137 92.995 C 356.228 85.070,357.162 84.026,357.703 80.064 C 359.099 69.859,346.176 62.970,338.555 69.855 L 337.537 70.775 336.356 69.873 C 333.563 67.742,330.521 66.872,327.250 67.272 M300.767 135.522 C 288.145 137.998,283.106 153.053,291.875 162.090 C 293.051 163.302,315.241 180.567,315.626 180.570 C 315.928 180.572,338.297 163.193,339.412 162.090 C 345.459 156.108,345.128 145.407,338.719 139.645 C 332.518 134.069,322.771 133.823,317.071 139.099 L 315.625 140.437 314.250 139.202 C 310.844 136.142,305.309 134.631,300.767 135.522 M143.250 162.741 C 124.700 166.723,116.022 187.075,126.191 202.750 C 128.381 206.126,130.054 207.549,149.939 222.951 L 168.753 237.523 187.860 222.747 C 211.740 204.280,212.620 203.375,214.771 195.066 C 221.368 169.588,190.036 151.528,170.427 169.506 L 168.730 171.063 167.052 169.460 C 160.799 163.485,151.722 160.923,143.250 162.741 " stroke="none" fill="#e383b3" fill-rule="evenodd"></path><path id="path2" d="M103.125 44.911 C 95.400 46.544,89.262 52.293,86.824 60.178 L 86.145 62.375 86.057 74.188 L 85.969 86.000 168.735 86.000 L 251.500 86.000 251.498 75.188 C 251.497 69.041,251.386 63.697,251.241 62.804 C 249.795 53.891,242.920 46.665,234.198 44.892 C 231.358 44.314,105.860 44.333,103.125 44.911 M190.062 57.455 C 192.067 58.265,194.043 60.142,195.056 62.202 C 197.392 66.945,195.020 73.043,190.062 75.045 L 188.625 75.625 168.750 75.625 L 148.875 75.625 147.438 75.045 C 138.913 71.602,140.029 58.815,149.011 57.019 C 149.624 56.896,158.787 56.814,169.375 56.835 L 188.625 56.875 190.062 57.455 M147.813 162.182 C 148.328 162.236,149.172 162.236,149.688 162.182 C 150.203 162.128,149.781 162.084,148.750 162.084 C 147.719 162.084,147.297 162.128,147.813 162.182 M187.813 162.182 C 188.328 162.236,189.172 162.236,189.688 162.182 C 190.203 162.128,189.781 162.084,188.750 162.084 C 187.719 162.084,187.297 162.128,187.813 162.182 M167.125 169.500 C 167.662 170.050,168.158 170.500,168.226 170.500 C 168.295 170.500,167.912 170.050,167.375 169.500 C 166.838 168.950,166.342 168.500,166.274 168.500 C 166.205 168.500,166.588 168.950,167.125 169.500 M129.500 169.875 C 128.893 170.494,128.452 171.000,128.521 171.000 C 128.590 171.000,129.143 170.494,129.750 169.875 C 130.357 169.256,130.798 168.750,130.729 168.750 C 130.660 168.750,130.107 169.256,129.500 169.875 M207.875 170.000 C 208.412 170.550,208.908 171.000,208.976 171.000 C 209.045 171.000,208.662 170.550,208.125 170.000 C 207.588 169.450,207.092 169.000,207.024 169.000 C 206.955 169.000,207.338 169.450,207.875 170.000 M121.813 186.875 C 121.816 187.425,121.867 187.621,121.927 187.310 C 121.987 186.999,121.984 186.549,121.922 186.310 C 121.859 186.071,121.810 186.325,121.813 186.875 M215.563 186.875 C 215.566 187.425,215.617 187.621,215.677 187.310 C 215.737 186.999,215.734 186.549,215.672 186.310 C 215.609 186.071,215.560 186.325,215.563 186.875 M121.813 189.875 C 121.816 190.425,121.867 190.621,121.927 190.310 C 121.987 189.999,121.984 189.549,121.922 189.310 C 121.859 189.071,121.810 189.325,121.813 189.875 M215.563 189.875 C 215.566 190.425,215.617 190.621,215.677 190.310 C 215.737 189.999,215.734 189.549,215.672 189.310 C 215.609 189.071,215.560 189.325,215.563 189.875 M208.000 206.875 C 207.393 207.494,206.952 208.000,207.021 208.000 C 207.090 208.000,207.643 207.494,208.250 206.875 C 208.857 206.256,209.298 205.750,209.229 205.750 C 209.160 205.750,208.607 206.256,208.000 206.875 M86.000 324.722 C 86.000 333.463,86.073 335.831,86.396 337.535 C 88.089 346.464,95.008 353.322,103.887 354.870 C 107.192 355.446,230.315 355.445,233.621 354.869 C 242.363 353.344,249.203 346.666,251.027 337.875 C 251.440 335.882,251.494 334.390,251.497 324.813 L 251.500 314.000 168.750 314.000 L 86.000 314.000 86.000 324.722 M172.635 320.129 C 183.365 322.862,187.056 336.373,179.214 344.214 C 170.172 353.256,154.750 346.856,154.750 334.061 C 154.750 324.685,163.564 317.819,172.635 320.129 " stroke="none" fill="#ececf4" fill-rule="evenodd"></path><path id="path3" d="M86.000 200.000 L 86.000 295.250 168.750 295.250 L 251.500 295.250 251.500 200.000 L 251.500 104.750 168.750 104.750 L 86.000 104.750 86.000 200.000 M151.757 162.258 C 157.828 162.996,163.173 165.472,167.181 169.402 L 168.814 171.003 170.595 169.314 C 184.565 156.066,208.289 161.952,214.322 180.164 C 217.420 189.519,215.077 199.888,208.326 206.690 C 206.824 208.203,169.787 237.060,168.919 237.393 C 168.509 237.550,131.891 209.241,129.458 206.886 C 111.726 189.720,126.955 159.240,151.757 162.258 " stroke="none" fill="#fcfbfc" fill-rule="evenodd"></path><path id="path4" d="M137.437 44.437 C 154.659 44.473,182.841 44.473,200.062 44.437 C 217.284 44.402,203.194 44.373,168.750 44.373 C 134.306 44.373,120.216 44.402,137.437 44.437 M159.563 56.937 C 164.616 56.975,172.884 56.975,177.938 56.937 C 182.991 56.900,178.856 56.869,168.750 56.869 C 158.644 56.869,154.509 56.900,159.563 56.937 M141.575 66.250 C 141.575 67.006,141.622 67.316,141.679 66.938 C 141.736 66.559,141.736 65.941,141.679 65.563 C 141.622 65.184,141.575 65.494,141.575 66.250 M195.825 66.250 C 195.825 67.006,195.872 67.316,195.929 66.938 C 195.986 66.559,195.986 65.941,195.929 65.563 C 195.872 65.184,195.825 65.494,195.825 66.250 M159.688 75.687 C 164.672 75.725,172.828 75.725,177.813 75.687 C 182.797 75.650,178.719 75.619,168.750 75.619 C 158.781 75.619,154.703 75.650,159.688 75.687 M85.866 104.812 C 85.801 104.984,85.776 147.931,85.811 200.250 L 85.875 295.375 168.750 295.375 L 251.625 295.375 251.625 200.000 L 251.625 104.625 168.805 104.562 C 102.680 104.512,85.961 104.562,85.866 104.812 M251.500 200.000 L 251.500 295.250 168.750 295.250 L 86.000 295.250 86.000 200.000 L 86.000 104.750 168.750 104.750 L 251.500 104.750 251.500 200.000 M179.125 324.000 C 179.662 324.550,180.158 325.000,180.226 325.000 C 180.295 325.000,179.912 324.550,179.375 324.000 C 178.838 323.450,178.342 323.000,178.274 323.000 C 178.205 323.000,178.588 323.450,179.125 324.000 M183.330 334.000 C 183.330 334.894,183.375 335.259,183.431 334.813 C 183.486 334.366,183.486 333.634,183.431 333.188 C 183.375 332.741,183.330 333.106,183.330 334.000 M158.875 344.250 C 159.412 344.800,159.908 345.250,159.976 345.250 C 160.045 345.250,159.662 344.800,159.125 344.250 C 158.588 343.700,158.092 343.250,158.024 343.250 C 157.955 343.250,158.338 343.700,158.875 344.250 M168.188 348.431 C 168.634 348.486,169.366 348.486,169.813 348.431 C 170.259 348.375,169.894 348.330,169.000 348.330 C 168.106 348.330,167.741 348.375,168.188 348.431 M138.187 355.437 C 154.997 355.473,182.503 355.473,199.312 355.437 C 216.122 355.402,202.369 355.373,168.750 355.373 C 135.131 355.373,121.378 355.402,138.187 355.437 " stroke="none" fill="#747c84" fill-rule="evenodd"></path></g></svg>