<?xml version="1.0" standalone="no"?>
<!DOCTYPE svg PUBLIC "-//W3C//DTD SVG 20010904//EN"
 "http://www.w3.org/TR/2001/REC-SVG-20010904/DTD/svg10.dtd">
<svg version="1.0" xmlns="http://www.w3.org/2000/svg"
 width="101" height="64.001" viewBox="0 0 2400.000000 1920.000000"
 preserveAspectRatio="xMidYMid meet">

<g transform="translate(0.000000,1920.000000) scale(0.100000,-0.100000)"
fill="#000000" stroke="none">
<path d="M2955 19193 c-1542 -61 -2589 -429 -2870 -1008 -55 -114 -74 -185
-81 -310 -18 -295 131 -646 429 -1015 165 -205 1941 -2123 2977 -3215 872
-921 1515 -1579 2384 -2441 837 -831 923 -919 1045 -1079 340 -442 644 -842
727 -955 263 -360 417 -620 494 -837 l36 -103 115 78 c142 96 217 153 549 418
481 383 722 554 998 707 233 130 352 178 982 397 753 262 1058 412 1293 638
61 59 147 161 147 174 0 3 -66 8 -147 11 -237 10 -406 43 -740 146 -89 27
-178 53 -197 57 -20 3 -36 10 -36 14 0 11 176 29 390 40 200 10 311 20 322 26
4 3 -59 81 -141 173 -430 491 -893 1108 -1347 1796 -439 666 -837 1319 -1869
3065 -268 454 -529 895 -580 980 -825 1387 -783 1319 -875 1411 -434 439
-1669 763 -3155 829 -197 9 -666 11 -850 3z"/>
<path d="M19595 18994 c-1471 -44 -2480 -276 -2795 -642 -82 -95 -779 -1414
-1870 -3537 -995 -1937 -1198 -2307 -1556 -2840 -110 -165 -301 -455 -424
-645 -249 -385 -336 -514 -456 -675 -311 -416 -514 -581 -949 -771 -176 -77
-290 -120 -758 -290 -1024 -372 -1111 -421 -2042 -1149 -385 -301 -605 -468
-805 -610 -282 -201 -389 -310 -478 -490 -48 -96 -73 -182 -107 -371 -47 -265
-68 -308 -271 -552 -220 -265 -361 -462 -478 -674 l-37 -67 22 -42 c31 -61
110 -134 184 -169 213 -102 512 -72 815 80 196 99 304 182 870 670 466 401
646 542 996 774 l101 67 12 127 c46 487 162 896 336 1192 94 158 100 153 39
-35 -103 -316 -157 -578 -204 -990 -55 -480 -73 -570 -171 -852 -32 -95 -86
-251 -119 -346 -93 -272 -104 -324 -103 -512 1 -231 41 -731 109 -1350 61
-562 83 -673 161 -830 55 -109 93 -156 293 -360 173 -177 258 -274 290 -335
13 -24 15 -22 42 65 150 474 256 1112 246 1487 -3 142 5 167 43 132 29 -26 87
-147 95 -199 3 -24 1 -117 -6 -206 -21 -306 -63 -590 -179 -1234 -33 -181 -62
-350 -66 -375 -5 -38 1 -68 40 -185 77 -235 135 -489 160 -707 6 -50 11 -61
49 -96 162 -150 374 -174 605 -71 l66 29 0 198 c0 222 15 336 70 536 130 473
425 945 864 1381 67 66 121 117 121 113 0 -11 -118 -217 -287 -504 -290 -489
-417 -744 -502 -1007 -62 -192 -84 -339 -78 -517 6 -162 22 -252 68 -370 101
-264 357 -431 664 -434 122 -1 183 17 251 77 91 80 127 152 265 531 l69 189
-29 92 c-51 158 -66 254 -65 425 1 134 4 168 27 253 78 290 290 529 545 612
l63 21 -175 117 c-422 283 -640 494 -768 743 -155 302 -182 620 -78 907 82
224 264 448 482 594 l103 69 -53 65 c-61 74 -134 215 -159 309 -14 50 -18 103
-17 230 0 149 3 173 27 253 83 269 255 478 490 592 134 65 225 86 392 92 216
8 390 -29 623 -133 68 -29 126 -54 130 -54 4 0 7 57 8 128 2 243 71 426 223
585 134 141 314 233 566 289 144 32 479 32 673 0 182 -30 331 -64 492 -113 74
-23 141 -42 149 -43 10 -1 21 30 37 106 62 287 241 822 349 1043 184 378 707
1110 1603 2240 579 732 1266 1571 2668 3260 1609 1938 2252 2732 2674 3295
162 218 186 254 206 324 32 116 -1 220 -105 329 -358 378 -1607 668 -3206 747
-216 10 -901 19 -1080 14z"/>
<path d="M16734 7683 c-20 -14 -34 -50 -39 -104 l-5 -54 96 -69 c89 -64 374
-294 419 -338 12 -12 -17 -1 -73 26 -344 172 -765 335 -1060 411 -475 124
-829 120 -1101 -12 -80 -38 -108 -59 -186 -137 -79 -78 -99 -105 -143 -193
-123 -248 -105 -448 55 -606 111 -110 178 -145 647 -342 408 -171 1047 -446
1357 -583 123 -55 248 -105 277 -111 29 -6 99 -11 155 -11 203 0 383 68 555
209 108 89 223 271 259 411 19 77 22 236 4 328 -42 219 -176 472 -319 602
-147 134 -487 373 -724 509 -107 61 -153 78 -174 64z"/>
<path d="M9385 6742 c-223 -157 -377 -281 -720 -582 -390 -342 -620 -523 -869
-685 l-133 -87 -36 -156 c-72 -313 -103 -570 -94 -782 10 -217 42 -353 142
-592 30 -70 63 -157 74 -193 39 -127 100 -460 131 -715 46 -381 68 -519 106
-673 71 -282 136 -430 229 -523 40 -40 84 -67 207 -127 221 -108 295 -181 390
-385 152 -327 208 -416 331 -527 180 -163 409 -239 612 -202 103 19 177 48
255 98 175 113 299 309 353 559 17 76 21 130 21 270 0 197 -12 277 -74 515
-175 677 -507 1068 -993 1171 -175 36 -426 35 -646 -4 -55 -10 -101 -16 -101
-13 0 3 22 20 48 38 215 144 437 215 678 216 l121 1 -29 81 c-69 187 -99 361
-148 835 -17 162 -49 448 -72 635 -40 327 -42 352 -42 635 -1 270 1 304 22
397 33 151 71 251 202 528 142 302 161 345 152 345 -4 0 -56 -35 -117 -78z"/>
<path d="M13590 6765 c-158 -32 -274 -97 -400 -224 -151 -153 -227 -320 -237
-521 -10 -218 68 -407 233 -560 108 -101 190 -143 524 -268 471 -176 750 -309
1149 -549 370 -222 656 -425 1236 -877 149 -116 328 -255 399 -309 l129 -98
46 7 c211 30 479 167 640 325 169 166 243 344 227 548 -27 351 -76 511 -209
676 -82 102 -330 343 -431 419 -271 204 -653 388 -1301 626 -183 67 -410 175
-900 430 -363 189 -634 319 -725 348 -135 43 -256 52 -380 27z"/>
<path d="M13017 5165 c-163 -45 -326 -183 -420 -355 -233 -427 -64 -956 433
-1353 102 -82 311 -221 515 -345 117 -71 165 -94 220 -107 99 -22 253 -100
370 -187 268 -199 486 -433 995 -1068 130 -162 254 -310 275 -329 152 -132
431 -132 705 1 104 50 107 53 301 247 108 108 224 234 259 281 159 216 212
421 161 621 -59 232 -170 410 -380 612 -94 90 -575 506 -731 633 -418 339
-1048 718 -1710 1029 -250 118 -637 287 -719 315 -71 23 -198 26 -274 5z"/>
<path d="M13404 2811 c-227 -65 -404 -239 -483 -477 -141 -420 31 -918 535
-1544 77 -96 178 -229 225 -295 152 -217 252 -316 376 -371 74 -33 232 -63
370 -70 377 -19 635 121 865 468 115 172 113 168 112 283 0 77 -5 115 -23 165
-78 224 -257 488 -568 840 -65 74 -198 230 -295 345 -347 414 -561 591 -788
654 -95 27 -238 27 -326 2z"/>
<path d="M12821 1164 c-40 -108 -86 -249 -102 -313 -28 -107 -30 -125 -25
-231 13 -296 162 -535 373 -600 116 -36 230 -21 353 47 65 35 168 112 204 152
25 27 18 40 -94 180 -47 58 -135 167 -195 241 -170 210 -300 421 -391 633 -20
48 -41 87 -44 87 -4 0 -40 -88 -79 -196z"/>
</g>
</svg>
