<svg id="svg" version="1.1" xmlns="http://www.w3.org/2000/svg" xmlns:xlink="http://www.w3.org/1999/xlink" width="700" height="350" viewBox="0, 0, 400,199.52380952380955"><g id="svgg"><path id="path0" d="M195.879 20.443 C 189.941 23.139,187.534 30.285,190.648 35.969 C 195.627 45.053,208.819 43.012,211.005 32.819 C 212.840 24.265,203.783 16.854,195.879 20.443 M144.188 30.021 C 135.282 34.725,133.950 53.761,142.524 53.803 C 151.298 53.846,156.881 32.952,148.944 29.776 C 146.662 28.863,146.352 28.879,144.188 30.021 M250.102 30.225 C 247.021 32.818,246.760 40.122,249.532 46.137 C 254.231 56.330,262.888 56.439,263.701 46.315 C 264.512 36.206,255.569 25.625,250.102 30.225 M185.926 44.978 C 178.281 45.779,168.012 47.518,167.414 48.112 C 165.699 49.817,170.238 52.579,175.502 53.033 C 182.969 53.677,185.717 55.351,185.710 59.250 C 185.706 61.356,184.209 76.133,183.621 79.857 C 180.711 98.307,181.050 102.381,185.494 102.381 C 188.632 102.381,190.193 100.303,192.413 93.171 C 198.447 73.783,202.082 73.728,208.136 92.931 C 211.213 102.688,215.331 105.473,218.131 99.688 L 219.182 97.516 217.896 87.687 C 217.189 82.280,216.524 77.107,216.419 76.190 C 216.313 75.274,215.886 71.614,215.468 68.058 C 213.958 55.186,214.423 54.369,223.975 53.116 C 229.494 52.391,230.091 52.166,232.116 50.038 C 233.905 48.158,233.581 47.872,228.571 46.919 C 215.942 44.517,198.080 43.704,185.926 44.978 M234.762 49.894 C 234.762 52.255,235.525 53.255,239.756 56.439 C 243.081 58.942,245.238 61.474,245.238 62.875 C 245.238 63.217,241.810 72.101,237.619 82.619 C 229.396 103.259,228.988 104.776,230.987 107.317 C 232.451 109.177,235.561 109.095,237.792 107.136 L 239.427 105.701 238.523 103.321 C 235.524 95.428,240.192 82.045,247.422 77.808 C 257.455 71.928,262.692 86.113,255.418 99.462 C 254.509 101.130,253.843 102.573,253.938 102.669 C 254.270 103.000,261.681 98.147,264.027 96.062 L 266.387 93.964 265.832 91.149 C 265.527 89.600,264.842 86.298,264.311 83.810 C 262.159 73.726,263.283 71.963,268.371 77.440 C 270.964 80.231,271.514 80.601,273.151 80.654 L 275.000 80.714 274.873 78.095 C 274.489 70.190,265.087 60.191,252.754 54.570 C 249.834 53.240,235.697 48.095,234.960 48.095 C 234.851 48.095,234.762 48.905,234.762 49.894 M159.175 50.232 C 142.127 55.983,131.820 63.081,127.326 72.165 C 122.815 81.282,125.975 84.052,132.769 76.937 C 135.968 73.586,137.143 73.443,137.143 76.404 C 137.143 78.611,135.739 86.436,134.536 90.940 L 133.839 93.547 136.361 95.988 C 138.756 98.309,144.933 102.381,146.058 102.381 C 146.347 102.381,145.963 101.256,145.205 99.881 C 138.026 86.859,142.424 72.801,152.222 77.450 C 159.791 81.042,165.420 96.621,161.716 103.727 C 159.669 107.654,166.337 110.773,169.525 107.380 C 171.513 105.263,170.886 102.974,162.706 82.485 C 153.627 59.745,153.806 61.744,160.397 56.727 C 164.828 53.354,165.899 51.927,165.469 49.969 C 165.088 48.233,165.100 48.233,159.175 50.232 M146.361 79.415 C 139.695 84.792,146.133 104.258,155.137 105.947 C 158.176 106.517,160.943 102.430,160.950 97.362 C 160.964 87.156,151.380 75.367,146.361 79.415 M247.812 80.119 C 238.879 86.143,236.365 105.714,244.526 105.714 C 251.430 105.714,258.635 92.255,256.410 83.513 C 255.116 78.430,252.090 77.235,247.812 80.119 M124.762 86.019 C 124.762 94.353,126.662 98.728,134.328 108.047 C 143.025 118.619,142.864 115.612,136.358 145.952 C 133.401 159.746,133.656 163.337,137.591 163.332 C 140.575 163.327,142.721 160.822,144.525 155.238 C 146.365 149.540,149.256 145.238,151.245 145.238 C 152.644 145.238,154.463 150.284,158.060 164.147 C 162.037 179.477,164.339 182.618,169.356 179.559 C 171.742 178.104,172.109 176.228,171.497 168.628 C 170.486 156.079,169.934 145.387,169.848 136.667 L 169.762 127.857 171.526 126.995 C 173.271 126.142,176.922 125.630,186.721 124.863 C 194.098 124.286,198.370 121.960,199.307 118.012 C 199.667 116.492,199.777 116.513,187.619 115.777 C 157.525 113.953,129.739 100.232,126.149 85.421 C 125.240 81.674,124.762 81.880,124.762 86.019 M274.308 85.357 C 269.375 101.869,238.242 115.922,206.071 116.157 L 201.429 116.190 201.429 117.793 C 201.429 122.375,206.186 124.436,218.544 125.211 C 228.975 125.865,230.634 126.573,230.879 130.476 C 231.069 133.499,230.306 148.926,229.224 163.956 C 228.234 177.691,228.969 180.476,233.582 180.476 C 237.549 180.476,238.650 178.143,243.800 158.810 C 248.334 141.792,251.071 140.992,255.918 155.271 C 258.027 161.485,260.455 163.983,263.487 163.060 C 266.474 162.151,266.906 159.394,265.271 151.667 C 257.349 114.212,257.259 118.495,266.187 107.857 C 273.095 99.626,275.683 93.703,275.706 86.071 C 275.716 82.832,275.149 82.542,274.308 85.357 M130.765 109.052 C 128.723 118.250,129.202 122.880,132.365 124.516 C 135.391 126.080,137.613 124.988,138.560 121.471 C 139.336 118.591,138.111 116.201,132.441 109.528 L 131.028 107.866 130.765 109.052 M266.846 110.784 C 261.166 117.431,260.180 121.194,263.365 124.076 C 267.616 127.923,271.656 122.253,270.497 114.065 C 269.565 107.482,269.623 107.534,266.846 110.784 " stroke="none" fill="#000000" fill-rule="evenodd"></path></g></svg>